<svg width="243" height="240" viewBox="0 0 243 240" fill="none" xmlns="http://www.w3.org/2000/svg">
<path opacity="0.1" fill-rule="evenodd" clip-rule="evenodd" d="M144.642 0.661807C169.296 4.07561 191.992 15.2709 209.018 32.4169C230.133 52.7795 242.958 89.7516 243 127.11C243 157.002 222.662 182.994 208.538 196.223C184.047 219.127 146.252 246.704 98.3723 238.532C73.0765 234.22 51.4389 223.905 33.9819 206.737C12.4431 185.975 0 150.746 0 120.761C0 73.8608 17.9796 56.7322 32.1034 43.4233C57.2438 19.7867 109.332 -4.32903 144.642 0.661807Z" fill="#00646B"/>
<path d="M38.4151 157.136H27.6951V168.048H38.4151V157.136Z" fill="#F5F5F5"/>
<path d="M50.996 157.136H40.2759V168.048H50.996V157.136Z" fill="#F5F5F5"/>
<path d="M63.9025 157.136H53.1824V168.048H63.9025V157.136Z" fill="#F5F5F5"/>
<path d="M76.8046 157.136H66.0845V168.048H76.8046V157.136Z" fill="#F5F5F5"/>
<path d="M89.7069 157.136H78.9868V168.048H89.7069V157.136Z" fill="#F5F5F5"/>
<path d="M102.609 157.136H91.8892V168.048H102.609V157.136Z" fill="#F5F5F5"/>
<path d="M115.516 157.136H104.796V168.048H115.516V157.136Z" fill="#F5F5F5"/>
<path d="M128.418 157.136H117.698V168.048H128.418V157.136Z" fill="#F5F5F5"/>
<path d="M141.32 157.136H130.6V168.048H141.32V157.136Z" fill="#F5F5F5"/>
<path d="M154.227 157.136H143.507V168.048H154.227V157.136Z" fill="#F5F5F5"/>
<path d="M167.129 157.136H156.409V168.048H167.129V157.136Z" fill="#F5F5F5"/>
<path d="M180.585 157.136H169.865V168.048H180.585V157.136Z" fill="#F5F5F5"/>
<path d="M193.166 157.136H182.446V168.048H193.166V157.136Z" fill="#F5F5F5"/>
<path d="M206.068 157.136H195.348V168.048H206.068V157.136Z" fill="#F5F5F5"/>
<path d="M218.971 157.136H208.251V168.048H218.971V157.136Z" fill="#F5F5F5"/>
<path d="M38.4151 143.931H27.6951V154.843H38.4151V143.931Z" fill="#F5F5F5"/>
<path d="M50.996 143.931H40.2759V154.843H50.996V143.931Z" fill="#F5F5F5"/>
<path d="M63.9025 143.931H53.1824V154.843H63.9025V143.931Z" fill="#F5F5F5"/>
<path d="M76.8046 143.931H66.0845V154.843H76.8046V143.931Z" fill="#F5F5F5"/>
<path d="M89.7069 143.931H78.9868V154.843H89.7069V143.931Z" fill="#F5F5F5"/>
<path d="M102.609 143.931H91.8892V154.843H102.609V143.931Z" fill="#F5F5F5"/>
<path d="M115.516 143.931H104.796V154.843H115.516V143.931Z" fill="#F5F5F5"/>
<path d="M128.418 143.931H117.698V154.843H128.418V143.931Z" fill="#F5F5F5"/>
<path d="M141.32 143.931H130.6V154.843H141.32V143.931Z" fill="#F5F5F5"/>
<path d="M154.227 143.931H143.507V154.843H154.227V143.931Z" fill="#F5F5F5"/>
<path d="M167.129 143.931H156.409V154.843H167.129V143.931Z" fill="#F5F5F5"/>
<path d="M180.585 143.931H169.865V154.843H180.585V143.931Z" fill="#F5F5F5"/>
<path d="M193.166 143.931H182.446V154.843H193.166V143.931Z" fill="#F5F5F5"/>
<path d="M206.068 143.931H195.348V154.843H206.068V143.931Z" fill="#F5F5F5"/>
<path d="M218.971 143.931H208.251V154.843H218.971V143.931Z" fill="#F5F5F5"/>
<path d="M83.5877 68.8561C83.5403 68.8309 83.4965 68.7994 83.4575 68.7625L83.091 68.4697L81.7067 67.3268L76.6256 63.0727L59.9124 49.0372H60.0467L60.0019 49.0778C53.5243 54.6497 47.6288 59.6523 43.3294 63.2435C41.1797 65.033 39.429 66.4687 38.2076 67.4407C36.9861 68.4128 36.2614 68.9089 36.2329 68.8561C36.2772 68.826 36.3235 68.7988 36.3713 68.7747C36.4528 68.7137 36.5871 68.6283 36.7459 68.4982C37.0757 68.2541 37.5602 67.8718 38.1546 67.3757C39.3761 66.3874 41.1023 64.9354 43.2398 63.1255C47.5148 59.5099 53.394 54.483 59.8716 48.9111L59.9164 48.8745L59.9856 48.8135L60.0549 48.8745L76.7477 62.971L81.7719 67.2618L83.1317 68.4372L83.4819 68.7463C83.5192 68.7808 83.5545 68.8175 83.5877 68.8561Z" fill="#E0E0E0"/>
<path d="M83.5876 68.8555H36.2246V116.168H83.5876V68.8555Z" fill="#F5F5F5"/>
<path d="M87.3292 68.4248H32.4789C32.0314 68.4248 31.6687 68.7872 31.6687 69.2342V69.531C31.6687 69.978 32.0314 70.3404 32.4789 70.3404H87.3292C87.7767 70.3404 88.1395 69.978 88.1395 69.531V69.2342C88.1395 68.7872 87.7767 68.4248 87.3292 68.4248Z" fill="#E0E0E0"/>
<path d="M87.3292 115.302H32.4789C32.0314 115.302 31.6687 115.664 31.6687 116.111V116.408C31.6687 116.855 32.0314 117.217 32.4789 117.217H87.3292C87.7767 117.217 88.1395 116.855 88.1395 116.408V116.111C88.1395 115.664 87.7767 115.302 87.3292 115.302Z" fill="#E0E0E0"/>
<path d="M56.5728 97.1927C57.1927 96.2988 57.8728 95.4482 58.6085 94.6467C58.5242 94.6198 58.4413 94.5885 58.3601 94.5531C57.8859 94.3607 57.4574 94.0711 57.1021 93.7031C56.5076 93.0646 56.414 92.5115 56.5076 92.483C56.6013 92.4545 56.9148 92.8328 57.5011 93.2598C58.0258 93.6409 58.6373 93.8855 59.2803 93.9715C59.3088 93.9431 59.3332 93.9105 59.3658 93.8821C59.9064 93.3594 60.5079 92.9033 61.1572 92.5237C61.7469 92.1906 62.3839 91.9492 63.0464 91.8078C63.1319 91.6777 63.1929 91.6045 63.2459 91.6167C63.2988 91.6289 63.2947 91.6736 63.3069 91.759C64.4135 91.575 65.543 91.575 66.6496 91.759C67.2929 91.8567 67.8466 91.9746 68.3066 92.0844L68.2171 90.2176C67.7081 90.0753 67.0893 89.9126 66.3646 89.7743C65.9249 89.6889 65.4444 89.6116 64.9314 89.5547C65.1344 89.7445 65.311 89.9607 65.4566 90.1973C65.7946 90.7667 65.8231 91.1775 65.7213 91.2222C65.6195 91.2669 65.3834 90.9619 64.9844 90.5674C64.52 90.0631 63.8842 89.7499 63.2011 89.6889C62.8547 89.6685 62.5101 89.752 62.2117 89.9289C61.9551 90.0948 61.7291 90.304 61.544 90.5471C61.202 90.9944 61.0066 91.332 60.8885 91.2913C60.7704 91.2507 60.7704 90.8562 61.0269 90.2461C61.1307 90.0145 61.2679 89.7994 61.4341 89.6076C60.3643 89.7655 59.3274 90.0965 58.3642 90.5877C58.4008 90.6447 58.4375 90.7016 58.466 90.7545C58.7673 91.3117 58.8406 91.6858 58.7469 91.7468C58.6533 91.8079 58.3723 91.5232 57.9815 91.1083C57.9218 91.0432 57.8566 90.9782 57.7861 90.9131C56.5371 91.6944 55.4347 92.6883 54.5289 93.8495C53.7342 94.8602 53.0312 95.9395 52.4281 97.0747C52.0209 97.7905 51.7237 98.4128 51.4753 98.913V99.3726C51.4868 99.6148 51.546 99.8524 51.6494 100.072C51.7528 100.291 51.8984 100.488 52.078 100.651C52.2576 100.814 52.4676 100.941 52.696 101.023C52.9244 101.105 53.1668 101.141 53.4093 101.13L54.1828 101.093C54.3335 100.816 54.5045 100.515 54.6877 100.19C55.1926 99.336 55.8073 98.303 56.5728 97.1927Z" fill="#EBEBEB"/>
<path d="M65.2282 97.6847C64.287 98.4983 63.5008 99.4752 62.9075 100.568L62.8342 100.707L66.8446 100.519C67.0869 100.508 67.3246 100.45 67.5442 100.347C67.7638 100.244 67.9609 100.099 68.1243 99.9199C68.2877 99.7409 68.4141 99.5314 68.4963 99.3035C68.5785 99.0755 68.6149 98.8336 68.6034 98.5916L68.4894 96.1514C67.2868 96.3686 66.1622 96.8973 65.2282 97.6847Z" fill="#EBEBEB"/>
<path d="M59.8103 86.2546L59.7615 86.3074C60.0143 86.3379 60.27 86.3379 60.5228 86.3074C61.4495 86.1606 62.2891 85.6768 62.8802 84.949C63.07 84.7164 63.2428 84.4704 63.3973 84.2129C62.7629 84.3539 62.1535 84.5898 61.5895 84.9124C60.9459 85.2887 60.3488 85.7392 59.8103 86.2546Z" fill="#EBEBEB"/>
<path d="M60.4488 98.2135C61.0536 97.3484 61.768 96.565 62.5741 95.8831C63.381 95.1954 64.3145 94.6718 65.3223 94.3417C66.1484 94.0866 67.0065 93.9497 67.8711 93.935C68.0502 93.935 68.2253 93.935 68.3881 93.935L68.3026 92.1373C67.8426 92.0316 67.2848 91.9136 66.6374 91.8201C65.5345 91.6407 64.4099 91.6407 63.307 91.8201C63.2974 92.2205 63.1837 92.6115 62.9772 92.9548C62.727 93.4015 62.3858 93.7909 61.9756 94.0977C61.465 94.4842 60.8636 94.7335 60.229 94.8216C59.7076 94.8815 59.1795 94.833 58.6778 94.6793C57.9418 95.4848 57.2616 96.3395 56.642 97.2374C55.8766 98.3234 55.2618 99.3564 54.7529 100.223C54.5697 100.536 54.4028 100.829 54.248 101.101L58.861 100.886L59.1175 100.402C59.5194 99.6477 59.9639 98.9171 60.4488 98.2135Z" fill="#EBEBEB"/>
<path d="M65.1838 97.636C66.1267 96.8356 67.2693 96.3057 68.4898 96.1027L68.388 93.9756C68.2252 93.9756 68.0542 93.9756 67.871 93.9756C67.0131 93.9905 66.1618 94.1275 65.3426 94.3823C64.3504 94.7209 63.4326 95.247 62.6392 95.9319C61.8368 96.6106 61.1252 97.3898 60.522 98.2501C60.0264 98.9509 59.5723 99.6802 59.1622 100.434C59.0726 100.593 58.9912 100.747 58.9138 100.89L62.802 100.711L62.8875 100.544C63.4649 99.4401 64.2437 98.4539 65.1838 97.636Z" fill="#EBEBEB"/>
<path d="M67.7646 84.3902C67.6002 84.0813 67.3515 83.8253 67.0475 83.6518C66.7434 83.4783 66.3963 83.3945 66.0464 83.41L65.1914 83.4507C65.5985 83.5808 66.0057 83.7191 66.3803 83.8574C66.9014 84.0445 67.3615 84.2275 67.7646 84.3902Z" fill="#EBEBEB"/>
<path d="M54.4591 93.8252C55.3642 92.6611 56.4666 91.6644 57.7163 90.8807C57.5741 90.7435 57.4186 90.6209 57.2521 90.5146C56.9699 90.3268 56.6385 90.2263 56.2994 90.2259C55.9731 90.2527 55.6677 90.3973 55.4403 90.6326C55.214 90.8457 55.0169 91.0878 54.854 91.3524C54.565 91.8202 54.4469 92.1659 54.3207 92.1659C54.1945 92.1659 54.1171 91.7592 54.3207 91.1166C54.44 90.7352 54.6384 90.3832 54.9029 90.0835C55.0685 89.8973 55.2622 89.7381 55.477 89.6117C55.7266 89.4716 56.0053 89.3908 56.2913 89.3758C56.8111 89.3689 57.3169 89.5445 57.7203 89.872C57.9567 90.0595 58.1604 90.2849 58.3229 90.539C59.3153 90.0316 60.3861 89.6948 61.4905 89.5426C61.5742 89.4538 61.664 89.3709 61.7592 89.2945C62.1824 88.9771 62.7047 88.82 63.233 88.8512C63.7444 88.8743 64.2381 89.0452 64.654 89.3433C64.7227 89.3917 64.7879 89.4447 64.8494 89.5019C65.395 89.5589 65.9039 89.6443 66.3721 89.7337C67.0887 89.8802 67.7076 90.0428 68.2124 90.1893L68.0862 87.4684C67.5895 87.3382 66.9951 87.1877 66.3111 87.0617C65.041 86.7848 63.7469 86.6323 62.4473 86.6062C60.8549 86.5478 59.2685 86.8293 57.7936 87.4318C57.0385 87.7718 56.3386 88.2228 55.7172 88.7698C55.1465 89.2814 54.622 89.8421 54.1497 90.4455C53.2377 91.5924 52.5211 92.7109 51.8615 93.6015C51.6458 93.9066 51.4544 94.1831 51.2305 94.4353L51.4381 98.8603C51.6783 98.3682 51.9755 97.7622 52.3501 97.0667C52.957 95.9267 53.6627 94.8421 54.4591 93.8252Z" fill="#EBEBEB"/>
<path d="M54.1136 90.4046C54.5883 89.7994 55.1141 89.2361 55.6852 88.7208C56.3098 88.176 57.0107 87.7252 57.7657 87.3827C59.2474 86.7679 60.8444 86.4794 62.4479 86.5368C63.752 86.5665 65.0502 86.7232 66.3239 87.0045C66.9997 87.1509 67.5901 87.3055 68.0827 87.4397L67.9769 85.1703C67.9659 84.9172 67.9021 84.6692 67.7896 84.4422C67.3824 84.2755 66.902 84.0884 66.3646 83.8973C65.9574 83.7508 65.5055 83.6004 65.0292 83.458L56.6054 83.8647C56.4221 83.9705 56.2389 84.0762 56.0679 84.1901C55.4586 84.6053 54.9105 85.1036 54.4394 85.6705C53.9834 86.2074 53.5925 86.7523 53.2179 87.2689L52.2204 88.7005L51.0356 90.3965L51.2229 94.3863C51.4102 94.1422 51.6097 93.8779 51.8174 93.5728C52.4891 92.6781 53.2016 91.5596 54.1136 90.4046Z" fill="#EBEBEB"/>
<path d="M53.1929 87.2207C53.5512 86.7042 53.938 86.1552 54.4144 85.5939C54.8867 85.0235 55.4346 84.52 56.0429 84.0972C56.1814 84.0077 56.3239 83.9223 56.4501 83.8369L52.6026 84.0159C52.3574 84.0263 52.1168 84.0852 51.8946 84.1893C51.6725 84.2933 51.4732 84.4404 51.3084 84.6221C51.1437 84.8037 51.0167 85.0162 50.9348 85.2473C50.8529 85.4783 50.8178 85.7233 50.8315 85.9681L51.0351 90.328L52.1995 88.6523L53.1929 87.2207Z" fill="#EBEBEB"/>
<path d="M65.2286 97.6846C66.1614 96.8979 67.2845 96.3692 68.4857 96.1513V96.1025C67.2652 96.3055 66.1226 96.8354 65.1797 97.6358C64.2323 98.4519 63.4465 99.4383 62.8631 100.544L62.7776 100.711H62.8305L62.9038 100.572C63.4979 99.4774 64.2855 98.4991 65.2286 97.6846Z" fill="white"/>
<path d="M60.5017 98.2506C61.1049 97.3903 61.8165 96.6111 62.6189 95.9323C63.42 95.2525 64.3448 94.7333 65.3427 94.4031C66.1618 94.1483 67.0132 94.0113 67.871 93.9964C68.0542 93.9964 68.2252 93.9964 68.3881 93.9964V93.9395C68.2252 93.9395 68.0502 93.9395 67.871 93.9395C67.0065 93.9541 66.1484 94.0911 65.3223 94.3462C64.3145 94.6763 63.3809 95.1999 62.5741 95.8876C61.7679 96.5695 61.0536 97.3528 60.4488 98.218C59.9567 98.9237 59.5053 99.657 59.0971 100.414L58.8406 100.898H58.8935C58.9709 100.756 59.0523 100.601 59.1419 100.443C59.5517 99.686 60.0058 98.954 60.5017 98.2506Z" fill="white"/>
<path d="M59.4064 93.9394C59.9446 93.4226 60.5418 92.9708 61.1856 92.5932C61.7496 92.2706 62.359 92.0347 62.9933 91.8937C63.0116 91.8692 63.0279 91.8434 63.0422 91.8164C62.3797 91.9578 61.7427 92.1992 61.1531 92.5322C60.5037 92.9119 59.9023 93.3679 59.3616 93.8906C59.3291 93.9191 59.3046 93.9516 59.2761 93.9801H59.3576L59.4064 93.9394Z" fill="white"/>
<path d="M63.3025 91.7675C63.3045 91.7878 63.3045 91.8083 63.3025 91.8286C64.4054 91.649 65.53 91.649 66.6329 91.8286C67.2803 91.9222 67.8544 92.0403 68.2981 92.1461V92.1095C67.8381 91.9996 67.2844 91.8815 66.6411 91.7838C65.5367 91.5946 64.4087 91.5891 63.3025 91.7675Z" fill="white"/>
<path d="M56.6214 97.2457C57.241 96.3477 57.9212 95.493 58.6571 94.6875L58.5839 94.6631C57.8482 95.4646 57.1681 96.3152 56.5481 97.2091C55.7827 98.3031 55.1679 99.3362 54.6631 100.207C54.4798 100.532 54.3088 100.833 54.1582 101.109H54.203C54.3577 100.837 54.5246 100.544 54.7078 100.231C55.2412 99.3646 55.856 98.3316 56.6214 97.2457Z" fill="white"/>
<path d="M54.4963 93.8661C55.4021 92.7048 56.5044 91.711 57.7534 90.9297L57.7005 90.8809C56.4508 91.6646 55.3484 92.6613 54.4434 93.8254C53.6505 94.8467 52.9489 95.9354 52.3466 97.0791C51.972 97.7746 51.6748 98.3806 51.4346 98.8727V98.9418C51.6829 98.4416 51.9964 97.8193 52.3873 97.1035C52.9924 95.9638 53.6982 94.8803 54.4963 93.8661Z" fill="white"/>
<path d="M64.8499 89.5098L64.9272 89.5708C65.4402 89.6278 65.9206 89.7052 66.3604 89.7907C67.0851 89.9291 67.7039 90.092 68.2129 90.2345V90.1978C67.708 90.0513 67.0891 89.8884 66.3726 89.7418C65.8962 89.6523 65.3954 89.5668 64.8499 89.5098Z" fill="white"/>
<path d="M58.3232 90.5472L58.3599 90.6042C59.3231 90.113 60.3599 89.7819 61.4297 89.624C61.4297 89.5996 61.4664 89.5752 61.4908 89.5508C60.3865 89.703 59.3156 90.0398 58.3232 90.5472Z" fill="white"/>
<path d="M54.1622 90.4452C54.6306 89.8423 55.151 89.2816 55.7175 88.7696C56.3389 88.2226 57.0388 87.7716 57.7939 87.4315C59.2697 86.8332 60.8561 86.5559 62.4476 86.6181C63.7473 86.6442 65.0413 86.7968 66.3114 87.0736C66.9954 87.216 67.5898 87.3665 68.0865 87.4803V87.4315C67.5939 87.2973 67.0035 87.1428 66.3277 86.9964C65.0539 86.715 63.7558 86.5584 62.4517 86.5286C60.8482 86.4712 59.2512 86.7598 57.7695 87.3746C57.0145 87.717 56.3136 88.1678 55.689 88.7127C55.1178 89.2279 54.592 89.7912 54.1174 90.3964C53.2054 91.5515 52.4889 92.6699 51.8415 93.5647C51.6339 93.8535 51.4344 94.1178 51.2471 94.3781V94.4432C51.4506 94.191 51.6542 93.9145 51.8781 93.6094C52.5336 92.7187 53.2502 91.5922 54.1622 90.4452Z" fill="white"/>
<path d="M53.2379 87.2528C53.5962 86.7363 53.987 86.1913 54.4593 85.6544C54.9304 85.0875 55.4786 84.5892 56.0879 84.174C56.2589 84.0601 56.4421 83.9544 56.6253 83.8486H56.4787C56.3322 83.934 56.1897 84.0195 56.0716 84.1089C55.4633 84.5317 54.9154 85.0352 54.443 85.6056C53.987 86.1465 53.6002 86.6956 53.2216 87.2324L52.1997 88.6519L51.0515 90.3234V90.3763L52.2363 88.6803L53.2379 87.2528Z" fill="white"/>
<path d="M67.7895 84.4427L67.7651 84.3899C67.3579 84.2272 66.9019 84.0442 66.3808 83.853C66.0143 83.7188 65.6194 83.5805 65.1919 83.4463H65.0291C65.5054 83.5886 65.9573 83.7391 66.3645 83.8855C66.9019 84.0889 67.3783 84.276 67.7895 84.4427Z" fill="white"/>
<path d="M57.721 89.8718C57.3143 89.5377 56.802 89.359 56.2756 89.3675C55.9896 89.3825 55.711 89.4632 55.4613 89.6034C55.2517 89.7336 55.0635 89.8955 54.9035 90.0833C54.642 90.3758 54.4438 90.7192 54.3213 91.0919C54.13 91.7264 54.2236 92.1331 54.3213 92.1412C54.419 92.1494 54.5656 91.8037 54.8547 91.3278C55.0175 91.0631 55.2147 90.8211 55.441 90.6079C55.6684 90.3726 55.9737 90.2281 56.3 90.2012C56.6391 90.2017 56.9706 90.3021 57.2527 90.49C57.4193 90.5963 57.5748 90.7189 57.7169 90.856L57.7698 90.9048C57.8377 90.9699 57.9028 91.035 57.9652 91.1001C58.3724 91.5068 58.6248 91.8037 58.7307 91.7386C58.8365 91.6735 58.7307 91.3034 58.4497 90.7462C58.4212 90.6933 58.3846 90.6364 58.348 90.5795L58.3113 90.5225C58.1511 90.2752 57.9517 90.0554 57.721 89.8718Z" fill="#E0E0E0"/>
<path d="M64.8499 89.5101C64.7885 89.4528 64.7232 89.3999 64.6545 89.3515C64.2386 89.0534 63.7449 88.8825 63.2336 88.8594C62.7052 88.8282 62.183 88.9853 61.7597 89.3027C61.6645 89.3791 61.5748 89.462 61.491 89.5508C61.4666 89.5752 61.4503 89.5996 61.4299 89.624C61.2637 89.8158 61.1266 90.031 61.0228 90.2625C60.7663 90.8726 60.7826 91.2711 60.8844 91.3077C60.9861 91.3444 61.1979 91.0108 61.5399 90.5635C61.725 90.3204 61.9509 90.1113 62.2076 89.9453C62.506 89.7685 62.8506 89.6849 63.1969 89.7053C63.8801 89.7663 64.5159 90.0795 64.9802 90.5838C65.3874 90.9905 65.6072 91.2874 65.7171 91.2386C65.8271 91.1898 65.7904 90.7831 65.4525 90.2137C65.3069 89.9771 65.1303 89.761 64.9273 89.5711L64.8499 89.5101Z" fill="#E0E0E0"/>
<path d="M63.2415 91.625C63.1886 91.625 63.1275 91.686 63.042 91.8162C63.0278 91.8431 63.0114 91.869 62.9932 91.8934C62.8388 92.1509 62.666 92.3969 62.4761 92.6296C61.885 93.3574 61.0454 93.8412 60.1187 93.988C59.8659 94.0184 59.6103 94.0184 59.3574 93.988H59.276C58.633 93.9019 58.0215 93.6573 57.4967 93.2762C56.8942 92.8695 56.6173 92.4384 56.5033 92.4994C56.3893 92.5604 56.5033 93.0892 57.0977 93.7196C57.4531 94.0876 57.8816 94.3771 58.3558 94.5696C58.437 94.605 58.5198 94.6362 58.6042 94.6631L58.6775 94.6875C59.1792 94.8413 59.7073 94.8897 60.2287 94.8299C60.8633 94.7417 61.4647 94.4925 61.9753 94.1059C62.3855 93.7991 62.7267 93.4098 62.9769 92.9631C63.1834 92.6198 63.2971 92.2288 63.3067 91.8284C63.3087 91.8081 63.3087 91.7876 63.3067 91.7674C63.2904 91.6819 63.27 91.6291 63.2415 91.625Z" fill="#E0E0E0"/>
<path d="M197.596 209.435H205.739V215.832C205.739 216.78 205.362 217.69 204.69 218.36C204.019 219.03 203.109 219.407 202.16 219.407H201.174C200.225 219.407 199.315 219.03 198.644 218.36C197.973 217.69 197.596 216.78 197.596 215.832V209.435Z" fill="#F5F5F5"/>
<path d="M202.286 209.435H210.429V215.832C210.429 216.78 210.052 217.69 209.381 218.36C208.71 219.03 207.8 219.407 206.85 219.407H205.865C204.916 219.407 204.006 219.03 203.335 218.36C202.663 217.69 202.286 216.78 202.286 215.832V209.435Z" fill="#E0E0E0"/>
<path d="M206.431 217.54C206.763 216.969 206.973 216.336 207.047 215.68C207.121 215.024 207.059 214.36 206.863 213.729C206.806 213.558 206.716 213.367 206.541 213.323C206.366 213.278 206.134 213.53 206.036 213.758C205.806 214.376 205.723 215.039 205.794 215.695C205.865 216.351 206.087 216.981 206.443 217.536" fill="#EBEBEB"/>
<path d="M205.161 217.255C205.248 216.811 205.242 216.354 205.144 215.912C205.046 215.471 204.858 215.054 204.591 214.689C204.517 214.591 204.416 214.485 204.293 214.502C204.171 214.518 204.069 214.725 204.065 214.908C204.053 215.36 204.145 215.809 204.336 216.219C204.527 216.629 204.811 216.99 205.165 217.271" fill="#EBEBEB"/>
<path d="M207.758 217.271C208.079 216.953 208.329 216.572 208.494 216.152C208.658 215.732 208.734 215.282 208.715 214.831C208.721 214.769 208.712 214.707 208.687 214.65C208.662 214.593 208.622 214.543 208.573 214.506C208.426 214.432 208.263 214.571 208.166 214.705C207.902 215.073 207.729 215.497 207.658 215.944C207.587 216.391 207.622 216.848 207.758 217.279" fill="#EBEBEB"/>
<path d="M177.332 193.255C177.332 193.255 178.44 188.538 186.078 188.505C193.427 188.473 193.789 193.255 193.789 193.255H177.332Z" fill="#EBEBEB"/>
<path d="M178.501 193.255C178.436 193.597 178.501 199.063 178.501 199.063C178.501 199.063 171.95 200.905 171.742 206.428V213.058C171.742 213.058 173.041 219.59 182.805 219.52C192.568 219.451 200.251 219.52 200.605 209.353C200.939 199.86 192.499 198.847 192.499 198.847L192.291 193.247L178.501 193.255Z" fill="#EBEBEB"/>
<path d="M173.42 203.794C173.42 203.794 168.221 204.648 167.288 203.098C166.356 201.549 164.463 193.951 162.537 193.874C160.611 193.797 159.451 193.874 159.451 193.874V196.355C159.451 196.355 162.089 195.81 162.301 196.973C162.512 198.137 164.336 206.511 166.413 208.987C168.489 211.464 172.565 213.644 172.565 213.644L173.42 203.794Z" fill="#EBEBEB"/>
<path d="M203.341 204.765C203.292 204.798 203.089 204.684 203.105 204.302C203.142 204.028 203.275 203.776 203.481 203.591C203.687 203.406 203.952 203.3 204.229 203.293C205.043 203.269 205.768 203.968 205.992 204.875C206.118 205.393 206.11 205.934 205.967 206.447C205.825 206.961 205.553 207.429 205.177 207.808C204.688 208.28 204.063 208.587 203.389 208.687C202.716 208.786 202.029 208.672 201.424 208.361C200.738 207.999 200.197 207.414 199.893 206.701C199.594 206.003 199.477 205.24 199.555 204.485C199.693 202.915 200.573 201.638 201.436 200.556C202.299 199.474 203.227 198.522 203.712 197.469C203.944 196.984 204.061 196.453 204.054 195.915C204.025 195.145 203.772 194.399 203.324 193.771C202.876 193.143 202.253 192.66 201.533 192.381C200.629 192.087 199.651 192.11 198.761 192.446C197.955 192.731 197.248 193.242 196.725 193.918C196.249 194.561 195.838 195.444 195.097 196.009C194.356 196.574 193.444 196.761 192.792 196.359C192.572 196.231 192.392 196.045 192.271 195.821C192.15 195.597 192.094 195.344 192.108 195.09C192.157 194.736 192.34 194.638 192.389 194.683C192.438 194.728 192.446 194.874 192.536 195.069C192.596 195.204 192.684 195.324 192.795 195.421C192.907 195.518 193.037 195.589 193.179 195.631C193.399 195.659 193.622 195.629 193.826 195.542C194.03 195.456 194.207 195.316 194.339 195.139C194.746 194.732 194.987 194.02 195.5 193.105C196.116 192.097 197.027 191.302 198.109 190.828C199.374 190.252 200.803 190.145 202.14 190.527C202.885 190.759 203.573 191.142 204.164 191.651C204.754 192.161 205.234 192.786 205.572 193.487C205.943 194.228 206.151 195.039 206.183 195.867C206.204 196.729 206.023 197.584 205.654 198.364C204.937 199.881 203.858 200.918 203.056 201.886C202.254 202.854 201.619 203.802 201.517 204.7C201.415 205.599 201.709 206.49 202.279 206.823C202.568 206.996 202.902 207.079 203.239 207.061C203.575 207.042 203.899 206.924 204.168 206.722C204.404 206.526 204.59 206.275 204.708 205.992C204.826 205.708 204.874 205.401 204.848 205.095C204.847 204.887 204.788 204.684 204.675 204.509C204.562 204.335 204.402 204.196 204.212 204.111C204.084 204.091 203.952 204.109 203.833 204.16C203.713 204.212 203.611 204.296 203.537 204.403C203.402 204.574 203.41 204.733 203.341 204.765Z" fill="#EBEBEB"/>
<path d="M185.622 188.615C185.068 188.241 184.474 187.745 184.47 187.078C184.479 186.916 184.521 186.758 184.594 186.614C184.666 186.469 184.768 186.341 184.893 186.237C185.017 186.134 185.162 186.057 185.318 186.012C185.473 185.967 185.637 185.955 185.797 185.976C186.117 186.046 186.398 186.235 186.583 186.505C186.768 186.775 186.844 187.104 186.795 187.428C186.726 187.749 186.548 188.036 186.291 188.241C186.034 188.445 185.715 188.555 185.386 188.55" fill="#E0E0E0"/>
<path d="M172.805 204.72C172.886 204.655 174.128 206.587 174.551 209.328C174.68 209.977 174.691 210.644 174.584 211.297C174.49 211.855 174.209 212.364 173.786 212.741C173.507 212.997 173.153 213.158 172.776 213.2C172.512 213.2 172.369 213.16 172.369 213.135C172.839 213.063 173.272 212.838 173.601 212.494C173.929 212.151 174.135 211.708 174.185 211.236C174.258 210.625 174.234 210.006 174.116 209.402C173.725 206.742 172.687 204.777 172.805 204.72Z" fill="#E0E0E0"/>
<path d="M192.14 199.32C192.14 199.438 189.16 199.495 185.492 199.446C181.823 199.397 178.843 199.267 178.847 199.153C178.851 199.039 181.823 198.978 185.496 199.023C189.168 199.067 192.14 199.19 192.14 199.32Z" fill="#E0E0E0"/>
<path d="M194.185 193.118C194.185 193.236 190.476 193.33 185.903 193.33C181.331 193.33 177.618 193.236 177.618 193.118C177.618 193 181.327 192.906 185.903 192.906C190.48 192.906 194.185 193 194.185 193.118Z" fill="#E0E0E0"/>
<path d="M178.55 218.479C178.425 218.272 178.332 218.047 178.273 217.812C178.066 217.192 177.893 216.561 177.756 215.921C176.833 211.666 177.071 207.242 178.444 203.11C178.646 202.487 178.885 201.878 179.16 201.284C179.242 201.057 179.359 200.844 179.507 200.653C179.572 200.682 179.185 201.625 178.729 203.199C177.536 207.314 177.304 211.646 178.049 215.864C178.334 217.479 178.619 218.459 178.55 218.479Z" fill="#E0E0E0"/>
<path d="M183.232 218.349C183.114 218.349 182.91 214.376 182.776 209.471C182.642 204.566 182.625 200.58 182.743 200.576C182.861 200.572 183.065 204.55 183.199 209.459C183.334 214.368 183.35 218.345 183.232 218.349Z" fill="#E0E0E0"/>
<path d="M187.865 217.838C187.804 217.838 187.723 216.87 187.609 215.296C187.495 213.722 187.336 211.554 187.128 209.159C186.921 206.763 186.697 204.599 186.534 203.029C186.371 201.46 186.286 200.492 186.347 200.483C186.408 200.475 186.595 201.431 186.835 202.993C187.075 204.555 187.34 206.722 187.552 209.122C187.764 211.522 187.869 213.701 187.91 215.28C187.951 216.858 187.922 217.838 187.865 217.838Z" fill="#E0E0E0"/>
<path d="M193.398 217.215C193.337 217.215 193.321 216.259 193.256 214.722C193.191 213.185 193.064 211.062 192.787 208.735C192.511 206.409 192.132 204.314 191.827 202.805C191.521 201.297 191.314 200.365 191.375 200.365C191.436 200.365 191.741 201.256 192.12 202.757C193.089 206.675 193.571 210.698 193.557 214.734C193.545 216.272 193.451 217.215 193.398 217.215Z" fill="#E0E0E0"/>
<path d="M197.335 215.731C197.266 215.702 197.653 214.869 197.954 213.445C198.357 211.592 198.337 209.672 197.897 207.828C197.456 205.983 196.606 204.261 195.409 202.789C194.493 201.655 193.781 201.089 193.821 201.032C193.862 200.975 194.033 201.13 194.363 201.382C194.822 201.751 195.249 202.159 195.637 202.602C196.938 204.067 197.857 205.829 198.312 207.733C198.767 209.638 198.745 211.625 198.247 213.518C198.101 214.087 197.903 214.641 197.657 215.174C197.482 215.548 197.36 215.743 197.335 215.731Z" fill="#E0E0E0"/>
<path d="M180.247 194.008C180.365 194.008 180.459 194.984 180.459 196.188C180.459 197.392 180.365 198.368 180.247 198.368C180.129 198.368 180.036 197.392 180.036 196.188C180.036 194.984 180.129 194.008 180.247 194.008Z" fill="#E0E0E0"/>
<path d="M182.862 194.211C182.976 194.211 183.073 195.142 183.073 196.289C183.073 197.436 182.976 198.367 182.862 198.367C182.748 198.367 182.646 197.436 182.646 196.289C182.646 195.142 182.743 194.211 182.862 194.211Z" fill="#E0E0E0"/>
<path d="M186.127 193.968C186.241 193.968 186.338 194.915 186.338 196.087C186.338 197.258 186.241 198.206 186.127 198.206C186.013 198.206 185.915 197.258 185.915 196.087C185.915 194.915 186.001 193.968 186.127 193.968Z" fill="#E0E0E0"/>
<path d="M190.125 194.537C190.243 194.537 190.337 195.351 190.337 196.351C190.337 197.352 190.243 198.165 190.125 198.165C190.007 198.165 189.913 197.352 189.913 196.351C189.913 195.351 190.011 194.537 190.125 194.537Z" fill="#E0E0E0"/>
<path d="M185.711 188.453C185.736 188.583 184.009 188.77 182.312 189.946C180.614 191.121 179.787 192.634 179.677 192.561C179.633 192.54 179.767 192.125 180.15 191.536C181.181 189.995 182.77 188.913 184.584 188.518C185.272 188.376 185.707 188.404 185.711 188.453Z" fill="#E0E0E0"/>
<path d="M183.489 192.617C183.383 192.637 183.249 191.454 183.916 190.205C184.584 188.957 185.626 188.391 185.671 188.493C185.716 188.595 184.889 189.258 184.295 190.405C183.7 191.552 183.615 192.625 183.489 192.617Z" fill="#E0E0E0"/>
<path d="M188.765 192.34C188.639 192.36 188.476 191.266 187.714 190.197C186.953 189.127 185.996 188.57 186.057 188.476C186.118 188.383 187.238 188.765 188.06 189.953C188.883 191.14 188.871 192.356 188.765 192.34Z" fill="#E0E0E0"/>
<path d="M191.648 192.45C191.538 192.519 190.874 190.824 189.107 189.713C187.34 188.603 185.537 188.676 185.553 188.546C185.553 188.497 185.984 188.395 186.701 188.452C187.639 188.538 188.543 188.848 189.336 189.356C190.129 189.865 190.788 190.556 191.257 191.373C191.607 191.999 191.701 192.434 191.648 192.45Z" fill="#E0E0E0"/>
<path d="M202.526 56.0361C202.48 56.0097 202.436 55.9783 202.396 55.9426L202.034 55.6457L200.658 54.5028L195.564 50.2649L178.851 36.2294H178.99L178.945 36.266C172.463 41.8379 166.572 46.8404 162.252 50.4357C160.102 52.2252 158.351 53.665 157.122 54.6329C155.892 55.6009 155.18 56.1052 155.147 56.0524C155.191 56.0215 155.237 55.9943 155.286 55.971C155.371 55.9059 155.501 55.8205 155.66 55.6945C155.99 55.4464 156.475 55.0641 157.069 54.5719C158.29 53.5796 160.021 52.1317 162.158 50.3218C166.433 46.7062 172.312 41.6793 178.79 36.1074L178.835 36.0667L178.904 36.0098L178.973 36.0667L195.666 50.1673L200.698 54.4418L202.062 55.6131L202.412 55.9263C202.49 55.9954 202.531 56.032 202.526 56.0361Z" fill="#E0E0E0"/>
<path d="M202.527 56.0361H155.164V133.848H202.527V56.0361Z" fill="#F5F5F5"/>
<path d="M206.272 55.6006H151.422C150.974 55.6006 150.611 55.9629 150.611 56.4099V56.7068C150.611 57.1538 150.974 57.5162 151.422 57.5162H206.272C206.719 57.5162 207.082 57.1538 207.082 56.7068V56.4099C207.082 55.9629 206.719 55.6006 206.272 55.6006Z" fill="#E0E0E0"/>
<path d="M166.71 110.543C166.71 110.543 174.141 111.356 176.445 108.778C176.445 108.778 171.246 107.81 166.71 110.543Z" fill="#E0E0E0"/>
<path d="M176.278 95.6533C174.787 97.7692 174.128 100.359 174.426 102.929C177.178 100.615 176.278 95.6533 176.278 95.6533Z" fill="#E0E0E0"/>
<path d="M181.306 93.8277C181.947 91.3167 181.643 88.6581 180.451 86.3564C178.7 89.5084 181.306 93.8277 181.306 93.8277Z" fill="#E0E0E0"/>
<path d="M177.899 90.8419C175.85 89.2522 173.289 88.4692 170.7 88.6416C172.891 91.5008 177.899 90.8419 177.899 90.8419Z" fill="#E0E0E0"/>
<path d="M178.053 88.5324C178.962 86.7003 179.163 84.598 178.619 82.627C176.75 84.7744 178.053 88.5324 178.053 88.5324Z" fill="#E0E0E0"/>
<path d="M194.107 89.1021C187.935 89.0452 183.472 93.1692 183.472 93.1692C188.383 94.5439 194.107 89.1021 194.107 89.1021Z" fill="#E0E0E0"/>
<path d="M184.372 88.3171C186.379 82.2164 182.255 73.5332 182.255 73.5332C181.034 81.4722 184.372 88.3171 184.372 88.3171Z" fill="#E0E0E0"/>
<path d="M187.678 73.6465C186.704 76.714 186.611 79.9929 187.409 83.1106C189.363 79.3404 187.678 73.6465 187.678 73.6465Z" fill="#E0E0E0"/>
<path d="M186.542 86.8487C191.208 87.6133 194.917 83.7861 194.917 83.7861C189.014 83.8146 186.542 86.8487 186.542 86.8487Z" fill="#E0E0E0"/>
<path d="M192.148 104.638C190.385 102.738 187.984 101.551 185.402 101.303C187.1 104.483 192.148 104.638 192.148 104.638Z" fill="#E0E0E0"/>
<path d="M179.845 103.438C180.015 105.06 180.753 106.57 181.929 107.701C182.336 105.561 179.845 103.438 179.845 103.438Z" fill="#E0E0E0"/>
<path d="M180.614 102.93C181.987 104.331 183.811 105.202 185.764 105.39C184.522 103.092 180.614 102.93 180.614 102.93Z" fill="#E0E0E0"/>
<path d="M169.572 102.584C169.572 100.143 168.025 97.7031 168.025 97.7031C167.793 101.111 169.572 102.584 169.572 102.584Z" fill="#E0E0E0"/>
<path d="M165.533 104.422C168.453 105.26 169.967 103.784 169.967 103.784C167.838 103.336 165.533 104.422 165.533 104.422Z" fill="#E0E0E0"/>
<path d="M169.153 95.6699C169.923 98.5779 171.779 99.4198 171.779 99.4198C171.095 97.3537 169.153 95.6699 169.153 95.6699Z" fill="#E0E0E0"/>
<path d="M173.086 123.822C173.081 123.782 173.081 123.741 173.086 123.7L173.135 123.355C173.184 123.033 173.249 122.582 173.334 122.013C173.42 121.443 173.534 120.719 173.693 119.898C173.851 119.076 174.01 118.137 174.246 117.112C174.356 116.599 174.474 116.058 174.6 115.485C174.727 114.911 174.877 114.35 175.008 113.748C175.293 112.528 175.667 111.271 176.038 109.933C176.852 107.265 177.801 104.361 178.965 101.364C180.129 98.3665 181.408 95.5805 182.629 93.0752L183.533 91.2531C183.83 90.6634 184.14 90.1022 184.425 89.5531C184.991 88.455 185.565 87.4545 186.078 86.5353C186.591 85.6162 187.088 84.8028 187.507 84.0951C187.926 83.3874 188.321 82.7651 188.627 82.2649L189.347 81.122L189.543 80.8251L189.612 80.7275C189.612 80.7275 189.612 80.7682 189.559 80.8373L189.384 81.1424C189.221 81.423 188.977 81.8135 188.696 82.3096C188.415 82.8058 188.036 83.4077 187.629 84.152C187.222 84.8963 186.725 85.6934 186.228 86.6207C185.732 87.548 185.162 88.5445 184.6 89.6467C184.315 90.1957 184.014 90.761 183.72 91.3508L182.825 93.1728C181.624 95.6781 180.382 98.46 179.201 101.453C178.02 104.447 177.064 107.338 176.262 109.994C175.883 111.332 175.504 112.597 175.215 113.797C175.065 114.399 174.906 114.972 174.776 115.534C174.645 116.095 174.527 116.628 174.413 117.14C174.165 118.161 174.006 119.1 173.831 119.918C173.656 120.735 173.534 121.443 173.424 122.021C173.314 122.598 173.241 123.037 173.184 123.355C173.155 123.497 173.135 123.611 173.118 123.7C173.113 123.742 173.103 123.783 173.086 123.822Z" fill="#E0E0E0"/>
<path d="M187.931 99.8148C187.931 99.8677 185.818 100.653 183.167 101.564C180.517 102.475 178.359 103.19 178.338 103.113C178.318 103.036 180.451 102.275 183.098 101.364C185.744 100.453 187.91 99.7578 187.931 99.8148Z" fill="#E0E0E0"/>
<path d="M176.669 108.277C176.632 108.322 174.271 106.541 171.376 104.296C168.481 102.051 166.193 100.192 166.229 100.147C166.266 100.103 168.628 101.884 171.522 104.129C174.417 106.374 176.705 108.216 176.669 108.277Z" fill="#E0E0E0"/>
<path d="M174.466 106.557C174.296 106.118 174.16 105.667 174.059 105.207C173.835 104.369 173.534 103.206 173.216 101.917C172.898 100.627 172.622 99.4763 172.434 98.61C172.306 98.1597 172.214 97.7001 172.157 97.2354C172.327 97.6747 172.463 98.126 172.565 98.5856C172.789 99.4234 173.09 100.591 173.407 101.876C173.725 103.161 173.998 104.336 174.189 105.182C174.315 105.633 174.407 106.093 174.466 106.557Z" fill="#E0E0E0"/>
<path d="M181.449 95.4868C181.346 95.3847 181.257 95.2699 181.184 95.1452C181.026 94.9174 180.802 94.588 180.529 94.1731C179.983 93.3597 179.246 92.1884 178.456 90.9194C177.667 89.6505 176.966 88.4467 176.486 87.5804C176.246 87.1493 176.054 86.7954 175.932 86.5473C175.857 86.4198 175.798 86.2831 175.757 86.1406C175.853 86.2477 175.935 86.3666 176.001 86.4945L176.637 87.4746C177.178 88.3613 177.878 89.5082 178.672 90.773C179.466 92.0379 180.146 93.1889 180.708 94.0755C180.94 94.4822 181.14 94.8076 181.306 95.0841C181.37 95.2119 181.418 95.3472 181.449 95.4868Z" fill="#E0E0E0"/>
<path d="M161.165 95.9307C161.165 95.9307 162.944 100.445 167.272 100.872C166.71 99.6298 165.865 98.5359 164.805 97.6779C163.745 96.8199 162.498 96.2215 161.165 95.9307Z" fill="#E0E0E0"/>
<path d="M194.551 98.4806C194.551 98.4806 189.893 97.1018 186.896 100.238C188.221 100.561 189.603 100.571 190.932 100.266C192.261 99.9606 193.5 99.3493 194.551 98.4806Z" fill="#E0E0E0"/>
<path d="M188.679 94.8447C188.679 94.8447 184.115 96.5082 183.582 100.811C184.838 100.282 185.954 99.4675 186.839 98.4316C187.724 97.3956 188.354 96.1673 188.679 94.8447Z" fill="#E0E0E0"/>
<path d="M170.122 90.8105C170.122 90.8105 169.047 95.5446 172.377 98.3265C172.614 96.9848 172.533 95.6064 172.142 94.3013C171.75 92.9963 171.058 91.8009 170.122 90.8105Z" fill="#E0E0E0"/>
<path d="M172.211 79.8525C172.211 79.8525 172.272 85.5017 176.791 87.759C176.698 86.1755 176.235 84.6358 175.44 83.263C174.644 81.8901 173.539 80.7222 172.211 79.8525Z" fill="#E0E0E0"/>
<path d="M196.924 73.085C196.924 73.085 189.872 75.33 188.781 81.8455C190.728 81.1202 192.478 79.9504 193.892 78.4293C195.306 76.9083 196.344 75.0781 196.924 73.085Z" fill="#E0E0E0"/>
<path d="M206.272 132.64H151.422C150.974 132.64 150.611 133.002 150.611 133.449V133.746C150.611 134.193 150.974 134.555 151.422 134.555H206.272C206.719 134.555 207.082 134.193 207.082 133.746V133.449C207.082 133.002 206.719 132.64 206.272 132.64Z" fill="#E0E0E0"/>
<path d="M49.9335 179.158C52.1118 178.036 54.6727 177.893 57.0871 178.292C58.3818 178.503 59.7376 178.894 60.617 179.866C61.4964 180.838 61.6674 182.55 60.6536 183.388C60.0511 183.888 59.2083 183.961 58.4266 183.953C56.5374 183.929 54.4406 183.6 52.9301 184.734C52.067 185.381 51.4929 186.459 50.4628 186.768C49.4328 187.077 48.3213 186.483 47.7838 185.576C47.2942 184.63 47.1864 183.533 47.4825 182.51C47.6059 181.8 47.8912 181.129 48.3163 180.548C48.7414 179.967 49.2948 179.491 49.9335 179.158Z" fill="#E79468"/>
<path d="M44.9541 169.548C46.2814 171.447 48.8668 170.821 50.0678 169.662C51.2689 168.502 51.7697 166.815 52.2338 165.224C53.2843 161.564 54.3469 157.729 53.5652 154.003C53.3756 152.875 52.8799 151.82 52.132 150.953C51.7523 150.526 51.2668 150.207 50.7243 150.027C50.1819 149.847 49.6017 149.813 49.0418 149.928C47.739 150.27 46.9288 151.555 46.3425 152.775C44.6166 156.356 43.7125 160.278 43.696 164.252C43.696 166.103 43.9078 168.039 44.9541 169.564" fill="#E79468"/>
<path d="M41.3019 172.273C42.7432 170.561 43.0201 168.063 42.3768 165.92C41.7335 163.777 40.28 161.951 38.6066 160.458C36.6388 158.709 34.3487 157.359 31.8643 156.484C30.9058 156.099 29.8757 155.923 28.8433 155.968C28.3257 155.999 27.8233 156.155 27.3799 156.424C26.9365 156.692 26.5653 157.065 26.2987 157.509C25.5903 158.86 26.2702 160.503 27.0071 161.841C28.3054 164.199 29.7865 166.452 31.4368 168.58C32.7641 170.288 34.2868 171.976 36.3226 172.749C38.3583 173.521 40.4469 173.432 41.5218 172.029" fill="#E79468"/>
<path d="M44.8603 198.172C44.936 197.89 44.9771 197.601 44.9825 197.309C45.0436 196.683 45.1209 195.894 45.2105 194.959C45.3286 193.799 45.5053 192.647 45.7398 191.506C46.0501 190.119 46.4708 188.759 46.9978 187.439C47.5142 186.119 48.2146 184.878 49.0783 183.754C49.7826 182.839 50.6826 182.093 51.7126 181.57C52.4105 181.222 53.1596 180.989 53.9315 180.878C54.2215 180.867 54.5095 180.825 54.7906 180.752C54.4996 180.721 54.2061 180.721 53.9152 180.752C53.1144 180.812 52.331 181.016 51.6026 181.354C50.5187 181.864 49.5681 182.619 48.8259 183.559C47.9243 184.699 47.1971 185.967 46.6681 187.321C46.1327 188.662 45.7145 190.047 45.4181 191.461C45.1954 192.615 45.0431 193.782 44.9621 194.955C44.8848 195.955 44.8563 196.764 44.8441 197.322C44.8227 197.605 44.8282 197.889 44.8603 198.172Z" fill="#263238"/>
<path d="M45.0236 196.361C45.0481 196.227 45.0563 196.09 45.0481 195.954C45.0481 195.653 45.0481 195.275 45.0481 194.808C45.0481 193.815 45.0481 192.367 45.101 190.606C45.1865 187.056 45.5081 183.237 46.0863 177.852C46.6441 172.792 47.3932 166.899 48.1871 163.068C48.3581 162.198 48.5291 161.413 48.6879 160.725C48.8467 160.038 48.9729 159.444 49.0951 158.964C49.2172 158.484 49.2946 158.151 49.3638 157.854C49.4036 157.722 49.4269 157.585 49.433 157.447C49.3731 157.566 49.3266 157.692 49.2946 157.821C49.2091 158.11 49.0991 158.472 48.9648 158.915C48.8304 159.359 48.6635 159.981 48.4925 160.668C48.3215 161.356 48.122 162.133 47.9388 163.003C46.9555 167.533 46.2175 172.112 45.728 176.721C45.1336 182.118 44.8689 187.031 44.8445 190.59C44.8445 192.367 44.8445 193.807 44.9056 194.799C44.9341 195.263 44.9585 195.641 44.9748 195.942C44.9741 196.083 44.9905 196.224 45.0236 196.361Z" fill="#263238"/>
<path d="M45.0475 186.885C45.0787 186.487 45.0787 186.087 45.0475 185.689C45.0028 184.925 44.8969 183.815 44.6811 182.436C44.4198 180.844 44.0677 179.269 43.6266 177.718C43.1145 175.81 42.4543 173.944 41.652 172.138C40.2792 168.806 38.3119 165.751 35.8461 163.121C35.4172 162.671 34.9618 162.248 34.4822 161.852C34.2705 161.677 34.075 161.503 33.9 161.36L33.3707 160.998C33.0506 160.758 32.7131 160.542 32.361 160.352C32.304 160.429 33.79 161.303 35.6629 163.296C38.0463 165.949 39.9589 168.989 41.3181 172.284C42.1022 174.082 42.766 175.93 43.305 177.816C43.822 179.548 44.164 181.142 44.4246 182.485C44.6852 183.827 44.8318 184.925 44.901 185.689C44.9194 186.091 44.9684 186.491 45.0475 186.885Z" fill="#263238"/>
<path d="M37.7397 203.401L38.6925 216.408H55.4179L56.3706 203.401H37.7397Z" fill="#263238"/>
<path d="M58.3655 198.277H36.1233V203.406H58.3655V198.277Z" fill="#263238"/>
<path d="M36.1233 215.912V217.336H37.1696H57.9991V215.912H36.1233Z" fill="#455A64"/>
<path d="M38.1954 219.832L37.1694 217.335H57.2009L56.0039 219.832H38.1954Z" fill="#455A64"/>
<path d="M56.0569 207.656C56.0363 207.699 56.0103 207.738 55.9796 207.774L55.7312 208.104L54.7541 209.352L54.7134 209.405L54.6686 209.348L52.2746 206.042H52.413L50.0557 209.373L49.9824 209.478L49.9009 209.381L47.1039 206.058H47.2667L47.112 206.249L44.6122 209.381L44.5307 209.482L44.4534 209.377L42.096 206.042H42.2304L39.3274 209.344L39.2745 209.405L39.2379 209.34L38.3259 207.811L38.0938 207.404C38.0628 207.36 38.0382 207.312 38.0205 207.262C38.0205 207.262 38.0612 207.303 38.1182 207.392L38.3788 207.799L39.3315 209.295H39.2419L42.0919 205.952L42.1652 205.867L42.2304 205.956L44.6081 209.275H44.4493L46.941 206.139L47.0957 205.948L47.1649 205.826L47.2464 205.924C48.2276 207.091 49.1681 208.218 50.0353 209.255H49.8806L52.2583 205.94L52.3275 205.842L52.3967 205.94C53.3413 207.282 54.1434 208.425 54.7419 209.283H54.6564C55.0635 208.771 55.4218 208.364 55.6702 208.063L55.943 207.746C56.0162 207.683 56.0542 207.654 56.0569 207.656Z" fill="#E0E0E0"/>
<path d="M56.6026 203.317C56.6026 203.374 52.409 203.422 47.2383 203.422C42.0676 203.422 37.874 203.374 37.874 203.317C37.874 203.26 42.0635 203.215 47.2383 203.215C52.4131 203.215 56.6026 203.26 56.6026 203.317Z" fill="#455A64"/>
<path d="M57.4451 217.474C57.4451 217.531 52.8891 217.58 47.2665 217.58C41.6438 217.58 37.0879 217.531 37.0879 217.474C37.0879 217.417 41.6398 217.368 47.2665 217.368C52.8932 217.368 57.4451 217.417 57.4451 217.474Z" fill="#263238"/>
<path d="M101.433 89.2561L103.383 128.386C103.953 135.088 110.333 144.276 120.89 142.889C129.974 140.998 131.431 132.798 130.89 126.543C130.633 123.574 129.473 120.748 129.469 120.443C129.469 120.443 137.758 119.125 137.636 109.128C137.579 104.296 136.647 94.3562 135.702 85.372C135.213 80.7162 132.987 76.415 129.467 73.3249C125.946 70.2348 121.39 68.5825 116.705 68.697L115.74 68.7214C105.358 69.5999 100.285 78.9013 101.433 89.2561Z" fill="#FFD5BE"/>
<path d="M129.481 120.443C129.481 120.443 120.431 122.37 113.603 118.315C113.603 118.315 117.133 126.568 130.365 123.489L129.481 120.443Z" fill="#FFB194"/>
<path d="M134.167 89.7967C133.992 89.9716 132.644 89.9757 130.91 90.6101C129.175 91.2446 127.999 92.1028 127.783 92.0702C127.677 92.0702 127.832 91.8018 128.337 91.4114C129.091 90.859 129.924 90.423 130.808 90.118C131.651 89.8044 132.539 89.6312 133.438 89.6056C134.02 89.6015 134.253 89.7154 134.167 89.7967Z" fill="#263238"/>
<path d="M119.469 92.8026C119.209 92.8595 117.995 92.0217 116.049 91.5296C114.103 91.0375 112.515 91.1432 112.34 90.9765C112.255 90.8992 112.552 90.7528 113.244 90.6918C114.259 90.627 115.279 90.7287 116.261 90.9928C117.213 91.2186 118.119 91.6095 118.936 92.1478C119.461 92.522 119.596 92.7619 119.469 92.8026Z" fill="#263238"/>
<path d="M116.823 95.5156C116.834 95.8031 116.731 96.0834 116.537 96.2958C116.342 96.5082 116.072 96.6355 115.784 96.6503C115.645 96.6649 115.503 96.6513 115.369 96.6105C115.234 96.5696 115.109 96.5023 115.001 96.4125C114.893 96.3227 114.804 96.2122 114.739 96.0875C114.674 95.9628 114.635 95.8264 114.624 95.6864C114.615 95.399 114.718 95.1194 114.912 94.9069C115.106 94.6943 115.375 94.5655 115.662 94.5476C115.802 94.5331 115.944 94.5468 116.079 94.5879C116.214 94.6289 116.339 94.6966 116.447 94.7868C116.555 94.8771 116.644 94.9881 116.709 95.1132C116.773 95.2384 116.812 95.3752 116.823 95.5156Z" fill="#263238"/>
<path d="M131.464 95.1409C131.474 95.4279 131.371 95.7075 131.178 95.9201C130.985 96.1328 130.716 96.2618 130.429 96.2797C130.29 96.2948 130.148 96.2816 130.013 96.241C129.878 96.2004 129.753 96.1332 129.645 96.0432C129.537 95.9533 129.448 95.8426 129.383 95.7176C129.319 95.5927 129.28 95.456 129.269 95.3158C129.258 95.0285 129.36 94.7483 129.553 94.5354C129.747 94.3225 130.016 94.1938 130.303 94.177C130.443 94.1619 130.585 94.175 130.72 94.2156C130.854 94.2562 130.98 94.3235 131.088 94.4134C131.196 94.5033 131.285 94.6141 131.35 94.739C131.414 94.864 131.453 95.0007 131.464 95.1409Z" fill="#263238"/>
<path d="M124.437 102.238C124.437 102.148 125.381 101.961 126.924 101.725C127.332 101.677 127.686 101.591 127.739 101.319C127.761 100.913 127.661 100.511 127.45 100.164L126.228 97.2068C124.514 92.9933 123.26 89.5282 123.431 89.4591C123.602 89.3899 125.129 92.7493 126.847 96.9628C127.254 98.004 127.661 98.9964 128.032 99.9399C128.191 100.383 128.439 100.883 128.272 101.473C128.219 101.613 128.134 101.739 128.025 101.841C127.916 101.943 127.784 102.019 127.641 102.063C127.426 102.129 127.202 102.166 126.977 102.173C125.41 102.295 124.445 102.323 124.437 102.238Z" fill="#263238"/>
<path d="M117.397 86.93C117.275 87.3367 115.915 87.17 114.331 87.4058C112.747 87.6417 111.481 88.1217 111.249 87.7841C111.151 87.6255 111.367 87.2594 111.876 86.8771C112.549 86.4038 113.327 86.1009 114.144 85.9946C114.956 85.8727 115.785 85.9537 116.558 86.2305C117.149 86.4582 117.45 86.751 117.397 86.93Z" fill="#455A64"/>
<path d="M133.919 86.4532C133.772 86.7705 132.445 86.563 130.865 86.6688C129.285 86.7745 128.015 87.0999 127.807 86.803C127.718 86.6606 127.954 86.3637 128.479 86.075C129.188 85.7064 129.969 85.4981 130.767 85.4649C131.571 85.4111 132.377 85.5276 133.133 85.8066C133.703 86.0343 133.98 86.3027 133.919 86.4532Z" fill="#455A64"/>
<path d="M102.431 96.634C102.256 96.5649 95.5092 94.7713 95.8919 101.596C96.2746 108.42 103.058 106.631 103.058 106.432C103.058 106.232 102.431 96.634 102.431 96.634Z" fill="#FFD5BE"/>
<path d="M100.826 103.962C100.794 103.962 100.712 104.056 100.517 104.157C100.24 104.296 99.9201 104.32 99.6252 104.227C98.8883 104.003 98.2165 102.893 98.1147 101.664C98.0645 101.079 98.1451 100.49 98.3509 99.9399C98.4038 99.7236 98.508 99.5231 98.6547 99.3554C98.8013 99.1876 98.9862 99.0575 99.1936 98.976C99.3293 98.9337 99.4753 98.9393 99.6073 98.9919C99.7393 99.0445 99.8491 99.1408 99.9184 99.2647C100.02 99.4518 99.9835 99.5901 100.02 99.5982C100.057 99.6064 100.159 99.4762 100.089 99.1915C100.04 99.0269 99.9369 98.8837 99.7962 98.7848C99.6008 98.6522 99.3606 98.6024 99.1285 98.6466C98.8505 98.7177 98.5956 98.8591 98.3881 99.0571C98.1806 99.2551 98.0276 99.5031 97.9437 99.7772C97.6903 100.388 97.5897 101.051 97.6506 101.709C97.7727 103.084 98.5504 104.332 99.556 104.556C99.7417 104.599 99.9347 104.599 100.121 104.558C100.307 104.516 100.481 104.434 100.631 104.316C100.822 104.149 100.851 103.974 100.826 103.962Z" fill="#FFB194"/>
<path d="M135.608 76.0623C134.668 74.1223 133.043 72.589 131.288 71.3323C127.506 68.5656 122.948 67.06 118.26 67.0293C113.606 67.074 108.936 68.8513 105.638 72.1457C103.039 74.8449 101.29 78.2476 100.61 81.9311C99.9407 85.6022 100.01 89.3698 100.814 93.0139C101.14 94.6163 101.628 96.2676 102.776 97.4267C103.501 98.1466 104.722 98.6021 105.516 97.9595C105.985 97.5812 106.143 96.9508 106.278 96.3652C107.462 91.078 108.623 85.3596 106.567 80.3287C107.781 78.5491 109.349 77.0375 111.172 75.8874C113.028 74.8056 115.296 74.3053 117.364 74.8869C120.438 75.7532 122.388 78.6693 124.872 80.6703C128.422 83.5173 131.117 85.2051 135.494 83.924L135.608 76.0623Z" fill="#455A64"/>
<path d="M123.301 107.103C123.358 106.924 121.985 106.655 120.923 105.496C120.478 104.987 120.103 104.42 119.807 103.812C119.563 103.337 119.38 103.044 119.311 103.072C119.241 103.101 119.311 103.434 119.453 103.959C119.667 104.664 120.032 105.313 120.524 105.862C121.03 106.411 121.676 106.813 122.393 107.025C122.926 107.184 123.301 107.164 123.301 107.103Z" fill="#263238"/>
<path d="M103.265 126.034C103.265 126.034 112.833 132.513 118.554 132.237C124.274 131.96 130.768 125.363 130.768 125.363L138.707 133.762L119.474 164.363L108.212 162.17C108.212 162.17 95.1835 134.591 95.5906 134.177C95.9978 133.762 103.265 126.034 103.265 126.034Z" fill="white"/>
<path d="M119.726 149.323L102.898 125.364L100.142 128.292L82.7285 138.683L90.0327 203.602C90.0327 203.602 85.607 207.421 85.8106 209.028C86.0142 210.634 87.4392 213.445 87.4392 213.445L85.8106 219.273H157.802L159.023 153.988L162.24 132.896L134.415 126.389L131.036 124.144L119.726 149.323Z" fill="#197A8A"/>
<path d="M159.582 140.521C159.639 140.521 159.374 149.018 158.983 159.49C158.592 169.963 158.234 178.455 158.169 178.455C158.104 178.455 158.376 169.959 158.763 159.482C159.15 149.005 159.537 140.521 159.582 140.521Z" fill="#455A64"/>
<path d="M158.176 198.974C158.176 198.974 158.119 198.917 158.014 198.799C157.908 198.681 157.753 198.498 157.558 198.274L155.819 196.241C154.321 194.455 152.179 191.848 149.574 188.595C144.366 182.087 137.323 172.981 129.705 162.805C122.087 152.63 115.304 143.316 110.471 136.532C108.053 133.136 106.119 130.374 104.812 128.443C103.505 126.511 102.829 125.413 102.899 125.376C102.909 125.394 102.917 125.413 102.923 125.433C102.947 125.486 102.974 125.538 103.004 125.587C103.086 125.726 103.208 125.925 103.375 126.181C103.709 126.694 104.218 127.442 104.881 128.398C106.209 130.309 108.159 133.063 110.581 136.443C115.467 143.206 122.238 152.499 129.864 162.679C137.49 172.859 144.521 181.978 149.679 188.501C152.269 191.755 154.394 194.386 155.872 196.188L157.578 198.258C157.769 198.49 157.916 198.665 158.018 198.799C158.119 198.933 158.176 198.974 158.176 198.974Z" fill="#455A64"/>
<path d="M157.908 207.177C157.908 207.177 157.838 207.128 157.708 207.018L157.142 206.53L154.988 204.639C153.124 202.988 150.424 200.596 147.192 197.53C143.39 193.944 139.8 190.142 136.439 186.142C132.644 181.631 128.776 176.43 124.847 170.886C120.919 165.343 117.193 160.072 113.936 155.171C112.307 152.731 110.797 150.36 109.429 148.127C108.061 145.894 106.844 143.775 105.793 141.811C104.104 138.725 102.579 135.552 101.225 132.306C100.732 131.163 100.411 130.252 100.171 129.638C100.057 129.337 99.971 129.105 99.91 128.938C99.8489 128.771 99.8245 128.698 99.8245 128.698C99.8245 128.698 99.8652 128.776 99.9303 128.934L100.211 129.621C100.46 130.227 100.793 131.134 101.302 132.273C102.683 135.504 104.226 138.663 105.928 141.737C106.982 143.698 108.224 145.804 109.592 148.033C110.96 150.262 112.474 152.613 114.111 155.061C117.368 159.942 121.134 165.229 125.055 170.784C128.976 176.34 132.84 181.526 136.622 186.036C139.97 190.032 143.544 193.834 147.326 197.424C150.542 200.503 153.229 202.91 155.062 204.582L157.191 206.502L157.745 207.006L157.908 207.177Z" fill="#455A64"/>
<path d="M135.108 126.567C135.101 126.671 135.086 126.775 135.063 126.876C135.017 127.096 134.96 127.389 134.892 127.755C134.745 128.516 134.485 129.61 134.163 130.952C133.841 132.294 133.385 133.888 132.844 135.637C132.302 137.386 131.622 139.297 130.861 141.258C130.1 143.218 129.273 145.073 128.492 146.732C127.71 148.391 126.948 149.851 126.277 151.063C125.605 152.275 125.055 153.252 124.648 153.91L124.176 154.671C124.124 154.76 124.065 154.846 124.001 154.927C124.036 154.829 124.083 154.735 124.139 154.647C124.249 154.451 124.396 154.195 124.575 153.87C124.982 153.199 125.503 152.218 126.155 150.998C126.806 149.778 127.547 148.306 128.325 146.651C129.102 144.995 129.896 143.149 130.674 141.184C131.451 139.22 132.099 137.321 132.665 135.58C133.231 133.839 133.674 132.257 134.025 130.919C134.375 129.581 134.648 128.479 134.819 127.739C134.908 127.381 134.977 127.092 135.026 126.872C135.044 126.769 135.072 126.666 135.108 126.567Z" fill="#455A64"/>
<path d="M137.603 199.376C137.496 199.348 137.391 199.309 137.29 199.262L136.398 198.888L135.759 198.616C135.523 198.522 135.258 198.437 134.981 198.335C134.42 198.14 133.793 197.884 133.068 197.697L131.94 197.367C131.533 197.257 131.126 197.18 130.719 197.078C129.868 196.863 128.935 196.729 127.962 196.57C123.708 195.968 119.379 196.16 115.194 197.135C114.237 197.379 113.321 197.595 112.495 197.884C112.088 198.022 111.681 198.136 111.273 198.29L110.182 198.717C109.474 198.97 108.875 199.279 108.33 199.531C108.061 199.657 107.809 199.767 107.581 199.881L106.966 200.21L106.115 200.657C106.017 200.714 105.915 200.762 105.81 200.804C105.898 200.734 105.994 200.672 106.095 200.621L106.929 200.137L107.536 199.791C107.76 199.673 108.012 199.555 108.281 199.425C108.818 199.173 109.421 198.852 110.125 198.612L111.216 198.168C111.599 198.018 112.01 197.9 112.438 197.762C113.273 197.461 114.189 197.241 115.149 196.989C119.355 195.987 123.713 195.794 127.991 196.419C128.968 196.586 129.904 196.729 130.759 196.952C131.187 197.058 131.606 197.139 132.001 197.257L133.129 197.599C133.854 197.798 134.481 198.063 135.038 198.266C135.315 198.376 135.58 198.465 135.812 198.567L136.447 198.86L137.322 199.266C137.418 199.298 137.512 199.334 137.603 199.376Z" fill="#455A64"/>
<path d="M162.223 132.896C162.223 132.896 167.923 135.381 171.873 139.968C175.822 144.556 193.089 160.369 195.304 165.274C197.519 170.178 200.055 176.82 197.836 182.038C195.617 187.256 194.196 187.891 186.754 186.309C179.311 184.726 157.439 169.532 157.439 169.532L159.569 143.808L162.223 132.896Z" fill="#197A8A"/>
<path d="M82.7285 138.684C82.7285 138.684 76.5033 143.031 73.8284 152.028C72.037 158.051 62.3999 184.243 62.6686 187.871C62.9373 191.499 63.1612 204.709 69.8913 207.665C76.6214 210.622 87.7079 208.141 90.0327 203.598C92.3575 199.055 82.7285 138.684 82.7285 138.684Z" fill="#197A8A"/>
<path d="M84.0601 183.242C83.935 183.036 83.8248 182.821 83.7303 182.599C83.6326 182.388 83.5064 182.132 83.3232 181.847C83.14 181.562 82.9934 181.221 82.7573 180.879L82.403 180.334C82.2809 180.143 82.1303 179.96 81.9959 179.76C81.715 179.354 81.3689 178.971 81.0147 178.54C79.4259 176.762 77.4996 175.316 75.3473 174.286C74.8424 174.067 74.3742 173.839 73.91 173.684C73.682 173.603 73.4622 173.509 73.2464 173.444L72.6194 173.257C72.2122 173.127 71.854 173.062 71.5364 172.985C71.2681 172.915 70.9963 172.859 70.7221 172.818C70.4824 172.793 70.2453 172.746 70.0137 172.68C70.255 172.68 70.4959 172.699 70.7343 172.737C71.0174 172.765 71.2988 172.808 71.5771 172.867C71.949 172.93 72.3173 173.013 72.6805 173.115L73.3156 173.29C73.5355 173.351 73.7594 173.44 73.9915 173.518C74.4597 173.668 74.9401 173.892 75.449 174.111C76.538 174.627 77.5743 175.246 78.5433 175.962C79.4978 176.69 80.3811 177.507 81.1816 178.402C81.5358 178.829 81.8819 179.215 82.1588 179.622C82.2972 179.826 82.4478 180.029 82.5659 180.204L82.912 180.765C83.1114 181.085 83.2935 181.414 83.4575 181.753C83.5924 182.004 83.7121 182.262 83.8158 182.526C83.9185 182.757 84.0003 182.996 84.0601 183.242Z" fill="#455A64"/>
<path d="M81.8657 152.027C81.8794 152.071 81.889 152.116 81.8942 152.162C81.8942 152.263 81.9268 152.393 81.9512 152.568C82.0001 152.934 82.0652 153.451 82.1507 154.106C82.3135 155.456 82.5578 157.384 82.8306 159.763C83.3925 164.546 84.1416 171.151 84.9111 178.472C85.6806 185.792 86.3158 192.397 86.7188 197.18C86.9143 199.58 87.069 201.52 87.1545 202.874C87.1952 203.537 87.2278 204.053 87.2481 204.424C87.2481 204.59 87.2481 204.72 87.2685 204.83C87.2739 204.875 87.2739 204.92 87.2685 204.965C87.2582 204.92 87.2514 204.876 87.2481 204.83C87.2481 204.729 87.2237 204.594 87.2074 204.424C87.1748 204.058 87.1301 203.541 87.0731 202.882C86.9509 201.528 86.7799 199.592 86.5682 197.188C86.1285 192.397 85.4689 185.78 84.6994 178.48C83.9299 171.179 83.2011 164.582 82.6841 159.771C82.4235 157.388 82.2158 155.456 82.0693 154.102C82 153.443 81.9471 152.926 81.9105 152.56L81.8738 152.153C81.8674 152.112 81.8647 152.07 81.8657 152.027Z" fill="#455A64"/>
<path d="M71.4956 207.177C71.4956 207.177 68.0063 205.7 68.0063 200.49C68.0063 195.281 69.3988 192.897 71.6421 190.969C75.396 187.744 82.8223 187.069 82.8223 187.069L87.9319 184.482L96.5186 194.321C96.5186 194.321 90.2934 204.85 86.4214 206.799C82.5495 208.747 74.6591 208.848 71.4956 207.177Z" fill="#FFD5BE"/>
<path d="M132.294 193.5L67.6399 178.46L68.1122 176.365L132.64 190.812L132.294 193.5Z" fill="#E0E0E0"/>
<path d="M123.921 177.939L123.865 178.272L80.2288 170.887C80.1764 170.882 80.1252 170.867 80.0784 170.844C80.0316 170.821 79.9901 170.79 79.9564 170.753C79.9227 170.716 79.8975 170.673 79.8823 170.627C79.8671 170.582 79.8621 170.534 79.8678 170.488C79.8771 170.441 79.8969 170.398 79.926 170.359C79.9551 170.32 79.9929 170.288 80.037 170.263C80.0811 170.239 80.1307 170.222 80.1828 170.216C80.2349 170.209 80.2883 170.212 80.34 170.224L123.921 177.939Z" fill="#AE7461"/>
<path d="M107.651 181.594C109.435 181.855 110.561 180.407 111.414 179.122C112.028 180.602 113.012 182.217 114.89 182.273C115.56 182.285 116.217 182.1 116.776 181.741C117.661 181.145 118.373 180.333 118.844 179.384C119.439 178.352 119.625 177.138 119.368 175.975C119.181 175.175 118.801 174.43 118.262 173.802C117.721 173.173 116.78 172.642 116.042 173.006C115.305 173.37 115.355 176.103 115.355 176.103C115.355 176.103 114.861 174.707 114.69 174.335C114.503 173.949 114.289 173.576 114.05 173.219C113.484 172.378 112.17 172.17 111.222 172.579C110.771 172.801 110.37 173.109 110.042 173.486C109.715 173.862 109.468 174.3 109.316 174.773C109.278 173.857 109.088 172.951 108.752 172.093C108.569 171.652 108.289 171.255 107.931 170.932C107.574 170.609 107.149 170.367 106.686 170.226C106.161 170.12 105.618 170.139 105.104 170.282C104.589 170.425 104.118 170.688 103.729 171.048C103 171.637 102.393 172.358 101.942 173.173C101.942 173.173 101.855 171.561 101.829 170.586C101.802 169.611 101.563 168.545 100.753 167.896C100.336 167.579 99.8279 167.399 99.302 167.383C98.7761 167.366 98.2592 167.513 97.8253 167.804C97.0014 168.399 96.9441 169.487 97.2539 170.442C96.6472 170.124 95.9656 169.972 95.2805 170.001C95.1019 170.022 94.9284 170.073 94.7681 170.153C93.9607 170.573 94.0322 171.432 94.2172 172.154C94.8975 174.742 96.4732 177.019 98.6721 178.593C99.4666 179.15 100.443 179.674 101.408 179.475C102.372 179.277 102.832 178.693 103.443 178.028C104.057 177.296 104.588 176.499 105.026 175.653C104.851 177.242 104.679 178.909 105.699 180.356C105.924 180.681 106.212 180.958 106.548 181.171C106.883 181.384 107.258 181.528 107.651 181.594Z" fill="#FFBE9D"/>
<path d="M103.7 170.949C104.038 170.324 105.615 169.842 106.668 170.112C107.132 170.255 107.558 170.499 107.916 170.825C108.275 171.151 108.555 171.552 108.738 171.999C109.074 172.867 109.264 173.785 109.3 174.713C109.455 174.235 109.704 173.791 110.033 173.409C110.362 173.027 110.764 172.714 111.216 172.487C112.151 172.073 113.486 172.284 114.053 173.13C114.292 173.491 114.506 173.868 114.695 174.258C114.864 174.638 115.358 176.05 115.358 176.05C115.358 176.05 115.291 173.303 116.053 172.912C116.815 172.52 117.757 173.064 118.28 173.714C118.817 174.342 119.194 175.09 119.38 175.892C119.637 177.069 119.448 178.297 118.85 179.341C118.377 180.303 117.661 181.125 116.772 181.729C116.209 182.091 115.55 182.279 114.878 182.27C112.994 182.211 112.014 180.58 111.395 179.083C110.537 180.388 109.405 181.85 107.616 181.589C107.217 181.525 106.836 181.382 106.495 181.167C106.154 180.952 105.86 180.67 105.633 180.339C104.61 178.881 104.785 177.195 104.963 175.586C104.523 176.442 103.989 177.247 103.372 177.987C102.77 178.662 102.254 179.266 101.327 179.458C101.327 179.458 100.698 179.031 101.528 178.257C102.358 177.483 103.24 176.79 103.198 176.393C103.157 175.995 101.808 176.533 102.062 175.43C102.162 174.826 102.488 174.282 102.975 173.906C102.89 173.904 102.807 173.881 102.734 173.837C102.661 173.794 102.6 173.733 102.558 173.66C102.515 173.587 102.492 173.505 102.491 173.42C102.49 173.336 102.511 173.253 102.552 173.179C102.811 172.726 103.216 172.371 103.702 172.171C103.702 172.171 103.117 172.026 103.7 170.949Z" fill="#E79468"/>
<path d="M97.2592 170.332C97.2862 170.374 97.3093 170.418 97.3281 170.464L97.5228 170.851C97.6904 171.195 97.9358 171.719 98.2833 172.332C98.6856 173.104 99.1483 173.848 99.6673 174.56C99.956 175.005 100.388 175.358 100.901 175.565C101.177 175.656 101.472 175.678 101.756 175.629C102.054 175.564 102.322 175.416 102.524 175.206C103.159 174.618 103.736 173.892 104.433 173.191C104.609 173.007 104.805 172.841 105.018 172.694C105.261 172.548 105.55 172.48 105.843 172.501C106.138 172.52 106.425 172.603 106.681 172.746C106.937 172.888 107.153 173.084 107.312 173.318C107.613 173.822 107.708 174.406 107.578 174.96C107.457 175.502 107.29 176.033 107.078 176.548C106.869 177.06 106.809 177.616 106.903 178.164C106.96 178.431 107.105 178.678 107.316 178.872C107.421 178.965 107.544 179.038 107.678 179.088C107.813 179.138 107.955 179.163 108.099 179.162C108.271 179.138 108.436 179.082 108.582 178.995C108.728 178.909 108.853 178.796 108.949 178.662C109.18 178.401 109.39 178.124 109.577 177.833C109.954 177.262 110.187 176.618 110.537 176.03C110.709 175.736 110.91 175.459 111.139 175.201C111.354 174.928 111.64 174.711 111.972 174.57C112.142 174.498 112.33 174.466 112.519 174.475C112.707 174.485 112.892 174.536 113.058 174.624C113.212 174.718 113.344 174.84 113.447 174.981C113.549 175.123 113.621 175.281 113.656 175.447C113.718 175.754 113.74 176.066 113.721 176.376C113.718 176.675 113.717 176.97 113.711 177.261C113.705 177.842 113.701 178.405 113.696 178.951C113.687 179.217 113.79 179.449 114.037 179.503C114.299 179.547 114.567 179.545 114.826 179.495C115.326 179.401 115.785 179.181 116.153 178.859C116.784 178.289 117.15 177.511 117.176 176.684C117.205 176.058 117.133 175.43 116.96 174.819C116.828 174.314 116.678 173.922 116.604 173.662C116.568 173.54 116.533 173.442 116.507 173.362C116.495 173.328 116.486 173.293 116.481 173.258C116.502 173.289 116.518 173.323 116.53 173.358L116.65 173.65C116.749 173.91 116.897 174.294 117.045 174.802C117.235 175.419 117.321 176.056 117.3 176.692C117.285 177.555 116.913 178.37 116.26 178.969C115.868 179.311 115.38 179.545 114.848 179.647C114.565 179.707 114.269 179.71 113.981 179.657C113.9 179.638 113.824 179.603 113.757 179.556C113.691 179.508 113.635 179.448 113.594 179.381C113.524 179.25 113.487 179.108 113.487 178.963C113.491 178.417 113.491 177.851 113.494 177.268L113.499 176.383C113.514 176.088 113.493 175.791 113.435 175.498C113.404 175.357 113.344 175.223 113.257 175.103C113.17 174.983 113.059 174.879 112.929 174.798C112.792 174.726 112.639 174.686 112.484 174.68C112.328 174.674 112.174 174.703 112.035 174.764C111.735 174.895 111.476 175.093 111.28 175.34C111.065 175.591 110.875 175.86 110.713 176.143C110.375 176.714 110.141 177.361 109.751 177.958C109.557 178.257 109.341 178.542 109.105 178.812C108.98 178.953 108.837 179.079 108.679 179.188C108.512 179.305 108.309 179.373 108.097 179.382C107.747 179.384 107.407 179.258 107.151 179.031C106.908 178.81 106.741 178.527 106.672 178.221C106.575 177.628 106.651 177.026 106.891 176.477C107.097 175.969 107.262 175.447 107.386 174.915C107.501 174.414 107.417 173.886 107.151 173.427C107.01 173.219 106.818 173.045 106.592 172.918C106.365 172.791 106.11 172.716 105.849 172.698C105.6 172.679 105.354 172.736 105.147 172.86C104.945 172.999 104.759 173.156 104.592 173.329C103.902 174.012 103.317 174.736 102.662 175.337C102.433 175.573 102.129 175.737 101.792 175.806C101.472 175.863 101.14 175.836 100.831 175.729C100.538 175.633 100.275 175.471 100.066 175.257C99.8698 175.067 99.6913 174.862 99.5319 174.645C99.0188 173.925 98.5664 173.169 98.1789 172.386C97.8529 171.749 97.6139 171.238 97.4603 170.889L97.2892 170.489C97.2695 170.438 97.2594 170.385 97.2592 170.332Z" fill="#FF9A6C"/>
<path d="M111.814 176.252C111.645 176.73 111.521 177.219 111.442 177.716C111.455 178.223 111.515 178.732 111.622 179.24C111.244 178.755 111.082 178.208 111.161 177.685C111.146 177.15 111.377 176.645 111.814 176.252Z" fill="#263238"/>
<path d="M115.18 176.06C115.38 176.311 115.504 176.581 115.544 176.852C115.668 177.117 115.708 177.39 115.664 177.651C115.336 177.136 115.169 176.592 115.176 176.06L115.18 176.06Z" fill="#263238"/>
<path d="M100.899 175.933C101.04 175.966 101.169 176.04 101.269 176.145C101.369 176.25 101.436 176.382 101.462 176.525C101.488 176.668 101.472 176.816 101.415 176.95C101.358 177.083 101.264 177.198 101.143 177.278C101.022 177.359 100.88 177.403 100.735 177.404C100.59 177.405 100.448 177.364 100.326 177.285C100.204 177.206 100.107 177.093 100.048 176.961C99.9896 176.828 99.971 176.68 99.9947 176.537C100.014 176.438 100.053 176.344 100.109 176.26C100.166 176.176 100.238 176.104 100.322 176.048C100.405 175.991 100.5 175.952 100.599 175.933C100.698 175.913 100.8 175.913 100.899 175.933Z" fill="#E79468"/>
<path d="M81.2099 175.995L81.2656 175.662L124.191 182.93C124.292 182.944 124.384 182.993 124.447 183.067C124.51 183.141 124.539 183.234 124.529 183.325C124.519 183.37 124.5 183.413 124.472 183.451C124.445 183.489 124.409 183.521 124.367 183.546C124.325 183.571 124.277 183.587 124.227 183.595C124.178 183.603 124.126 183.602 124.076 183.591L81.2099 175.995Z" fill="#AE7461"/>
<path d="M97.1551 172.285C95.4187 172.033 94.3128 173.48 93.4791 174.771C92.8843 173.297 91.9369 171.685 90.1188 171.638C89.4739 171.634 88.8416 171.823 88.3011 172.18C87.4369 172.778 86.7399 173.592 86.2778 174.542C85.6979 175.574 85.5105 176.784 85.7509 177.944C85.9313 178.742 86.2984 179.484 86.8214 180.108C87.3428 180.732 88.2559 181.26 88.9808 180.876C89.7058 180.491 89.6638 177.779 89.6638 177.779C89.6638 177.779 90.1391 179.168 90.3048 179.544C90.4735 179.935 90.6683 180.313 90.8879 180.676C91.4339 181.514 92.7133 181.711 93.6365 181.303C94.0768 181.078 94.4686 180.768 94.7893 180.389C95.1099 180.011 95.3529 179.572 95.504 179.098C95.5377 180.016 95.7184 180.921 96.0389 181.779C96.2165 182.219 96.4882 182.613 96.8345 182.933C97.1808 183.254 97.5932 183.493 98.0422 183.633C98.5518 183.738 99.0794 183.718 99.5804 183.574C100.082 183.43 100.542 183.167 100.922 182.807C101.634 182.215 102.227 181.491 102.67 180.674C102.67 180.674 102.754 182.285 102.771 183.261C102.789 184.237 103.022 185.297 103.807 185.943C104.212 186.257 104.706 186.434 105.217 186.448C105.728 186.463 106.232 186.314 106.656 186.024C107.46 185.421 107.521 184.336 107.223 183.383C107.812 183.698 108.474 183.848 109.141 183.818C109.315 183.797 109.485 183.744 109.642 183.662C110.429 183.24 110.361 182.382 110.189 181.659C109.54 179.089 108.024 176.829 105.902 175.269C105.133 174.704 104.182 174.2 103.244 174.387C102.306 174.575 101.843 175.174 101.273 175.846C100.674 176.574 100.155 177.365 99.7247 178.204C99.9039 176.62 100.076 174.952 99.0865 173.512C98.8657 173.184 98.5803 172.906 98.248 172.695C97.9157 172.484 97.5437 172.344 97.1551 172.285Z" fill="#FFBE9D"/>
<path d="M101.591 182.353C101.261 182.932 99.6878 183.369 98.6311 183.093C98.1652 182.954 97.7358 182.721 97.3738 182.411C97.0118 182.102 96.7262 181.724 96.5376 181.304C96.1934 180.488 95.9935 179.629 95.9458 178.76C95.7975 179.206 95.5535 179.618 95.2282 179.972C94.9029 180.325 94.5029 180.612 94.0517 180.817C93.0957 181.193 91.7907 180.986 91.2056 180.188C90.964 179.847 90.746 179.492 90.553 179.126C90.3765 178.767 89.8658 177.444 89.8658 177.444C89.8658 177.444 89.9624 180.012 89.2062 180.368C88.4501 180.723 87.5139 180.208 86.9674 179.605C86.4164 179.007 86.0265 178.299 85.8312 177.539C85.565 176.437 85.7408 175.294 86.3253 174.324C86.7874 173.431 87.495 172.67 88.3787 172.117C88.9311 171.786 89.5809 171.617 90.2463 171.63C92.1319 171.703 93.1336 173.239 93.7595 174.647C94.601 173.436 95.7196 172.09 97.5165 172.345C97.9152 172.409 98.2977 172.548 98.6404 172.753C98.9831 172.958 99.2788 173.225 99.5093 173.537C100.551 174.915 100.399 176.489 100.236 177.991C100.669 177.195 101.194 176.447 101.803 175.76C102.398 175.138 102.894 174.574 103.815 174.407C103.815 174.407 104.449 174.81 103.627 175.529C102.806 176.249 101.925 176.893 101.976 177.256C102.027 177.619 103.367 177.135 103.162 178.172C103.071 178.738 102.75 179.244 102.264 179.588C102.264 179.588 102.965 179.668 102.699 180.271C102.443 180.692 102.041 181.019 101.556 181.201C101.556 181.201 102.151 181.329 101.591 182.353Z" fill="#E79468"/>
<path d="M107.876 183.573C107.876 183.573 107.849 183.527 107.807 183.43L107.62 183.01C107.456 182.635 107.214 182.089 106.881 181.401C106.492 180.564 106.042 179.758 105.535 178.989C105.258 178.499 104.835 178.112 104.325 177.884C104.044 177.782 103.741 177.761 103.447 177.822C103.149 177.898 102.879 178.062 102.671 178.293C102.027 178.953 101.436 179.752 100.727 180.536C100.548 180.742 100.349 180.928 100.132 181.092C99.8873 181.254 99.5987 181.334 99.3076 181.319C99.0119 181.304 98.7247 181.216 98.4703 181.063C98.216 180.91 98.002 180.697 97.8465 180.442C97.5591 179.9 97.4739 179.27 97.6064 178.668C97.7366 178.07 97.9121 177.484 98.1314 176.913C98.3489 176.35 98.4191 175.739 98.3351 175.141C98.2829 174.85 98.1428 174.584 97.9343 174.378C97.7262 174.177 97.4478 174.067 97.1593 174.072C96.9875 174.103 96.8233 174.168 96.6761 174.263C96.529 174.359 96.4018 174.483 96.302 174.629C96.0693 174.922 95.8559 175.23 95.6632 175.551C95.2776 176.182 95.0301 176.89 94.6762 177.545C94.5045 177.869 94.3041 178.177 94.0778 178.465C93.8559 178.767 93.5651 179.009 93.2308 179.172C93.059 179.253 92.871 179.291 92.6822 179.284C92.4934 179.277 92.3093 179.224 92.145 179.13C91.9925 179.029 91.8619 178.898 91.7609 178.745C91.6599 178.591 91.5906 178.418 91.5573 178.237C91.5004 177.9 91.4846 177.558 91.5105 177.217C91.5167 176.889 91.5265 176.565 91.5312 176.245C91.5486 175.611 91.5638 174.991 91.5788 174.397C91.5885 174.101 91.4921 173.854 91.2351 173.798C90.962 173.746 90.6809 173.753 90.41 173.817C89.91 173.931 89.4483 174.178 89.073 174.533C88.4322 175.168 88.0531 176.027 88.0132 176.934C87.9725 177.62 88.0354 178.308 88.1998 178.975C88.3254 179.524 88.45 179.947 88.5304 180.236C88.5702 180.369 88.6008 180.478 88.6222 180.563C88.637 180.598 88.6456 180.637 88.6477 180.675C88.6477 180.675 88.6529 180.645 88.6034 180.569L88.4878 180.251C88.3937 179.964 88.2503 179.548 88.1118 178.996C87.9309 178.323 87.8546 177.624 87.8856 176.926C87.912 175.975 88.2994 175.069 88.9668 174.398C89.3582 174.014 89.8456 173.747 90.3753 173.627C90.6678 173.553 90.9725 173.545 91.2675 173.604C91.3504 173.622 91.4284 173.658 91.4965 173.709C91.5645 173.76 91.621 173.826 91.662 173.901C91.7304 174.046 91.7629 174.207 91.7569 174.368L91.7251 176.228C91.7168 176.543 91.7113 176.867 91.7051 177.196C91.6832 177.518 91.699 177.842 91.7521 178.161C91.7798 178.315 91.8378 178.462 91.9228 178.593C92.0078 178.723 92.1179 178.835 92.2466 178.921C92.3814 178.996 92.532 179.037 92.6858 179.041C92.8397 179.045 92.9925 179.011 93.1314 178.943C93.4322 178.793 93.6933 178.572 93.8924 178.298C94.1169 178.023 94.3154 177.726 94.485 177.413C94.8259 176.784 95.0741 176.071 95.4742 175.407C95.6725 175.076 95.8932 174.76 96.1347 174.461C96.2609 174.304 96.4054 174.162 96.5649 174.041C96.7338 173.906 96.9394 173.829 97.153 173.818C97.5026 173.812 97.8406 173.943 98.0956 174.184C98.3361 174.424 98.4982 174.733 98.5601 175.07C98.6538 175.708 98.5812 176.361 98.3495 176.963C98.1336 177.523 97.9586 178.097 97.8261 178.682C97.7029 179.233 97.7781 179.81 98.0379 180.307C98.1734 180.533 98.3609 180.721 98.5844 180.856C98.8078 180.991 99.0605 181.068 99.3207 181.082C99.5677 181.099 99.8139 181.034 100.022 180.897C100.228 180.744 100.417 180.568 100.586 180.373C101.287 179.61 101.883 178.806 102.55 178.141C102.783 177.878 103.09 177.695 103.429 177.616C103.75 177.548 104.083 177.572 104.39 177.687C104.68 177.784 104.941 177.957 105.145 178.188C105.34 178.393 105.515 178.616 105.669 178.854C106.17 179.634 106.612 180.452 106.991 181.302C107.318 182.002 107.531 182.557 107.681 182.935L107.844 183.368C107.861 183.435 107.872 183.504 107.876 183.573Z" fill="#FF9A6C"/>
<path d="M89.9555 177.873C89.8824 177.886 89.7454 177.374 89.6406 176.729C89.5426 176.343 89.5254 175.941 89.5903 175.548C89.7771 175.901 89.8845 176.292 89.9052 176.692C90.0084 177.077 90.0256 177.48 89.9555 177.873Z" fill="#263238"/>
<path d="M104.01 177.209C103.94 177.192 103.875 177.155 103.825 177.102C103.775 177.049 103.742 176.983 103.729 176.911C103.716 176.84 103.725 176.766 103.754 176.699C103.782 176.632 103.83 176.575 103.89 176.535C103.951 176.495 104.022 176.474 104.095 176.473C104.168 176.473 104.239 176.494 104.3 176.534C104.36 176.574 104.408 176.631 104.437 176.698C104.466 176.764 104.475 176.838 104.462 176.91C104.442 177.009 104.383 177.097 104.298 177.153C104.213 177.209 104.11 177.229 104.01 177.209Z" fill="#E79468"/>
<path d="M78.1482 180.813C78.1482 180.813 77.7004 182.501 79.6547 183.254C81.609 184.006 85.5257 185.023 85.5257 185.023L83.49 186.735C83.49 186.735 85.2407 192.279 88.6892 193.861C92.1377 195.443 96.2213 194.812 96.2213 194.812L100.395 191.725C100.395 191.725 102.756 192.905 104.527 191.908C104.527 191.908 107.634 192.815 109.413 192.165C111.192 191.514 114.343 189.346 114.343 189.346L108.985 188.081C108.985 188.081 109.743 183.059 107.226 183.608C105.678 183.985 104.3 184.87 103.314 186.121C103.314 186.121 102.569 184.685 101.172 184.474C99.7757 184.262 97.1659 185.287 97.1659 185.287L87.6428 182.965L78.1482 180.813Z" fill="#FFD5BE"/>
<path d="M88.1724 195.927C88.027 195.858 87.8903 195.772 87.7652 195.671C87.3976 195.418 87.0492 195.138 86.723 194.833C86.2317 194.38 85.7908 193.876 85.4079 193.328C84.9311 192.656 84.5921 191.896 84.4104 191.092C84.2769 190.284 84.2769 189.459 84.4104 188.651C84.4956 187.994 84.6345 187.346 84.8257 186.711C84.9578 186.284 85.1141 185.864 85.2939 185.455C85.3509 185.301 85.429 185.156 85.526 185.023C85.5585 185.023 85.2654 185.67 84.9682 186.752C84.7883 187.384 84.6523 188.029 84.561 188.68C84.4453 189.469 84.4535 190.272 84.5855 191.059C84.763 191.835 85.0863 192.571 85.5382 193.227C85.9057 193.768 86.3257 194.272 86.7922 194.732C87.6105 195.508 88.1968 195.895 88.1724 195.927Z" fill="#FFB194"/>
<path d="M108.196 188.77C107.88 189.083 107.538 189.369 107.174 189.624C106.518 190.12 105.631 190.819 104.593 191.543C104.099 191.896 103.531 192.13 102.931 192.227C102.441 192.275 101.946 192.235 101.47 192.109C101.153 192.027 100.842 191.926 100.537 191.808C100.422 191.773 100.313 191.722 100.212 191.657C100.212 191.621 100.708 191.791 101.502 191.962C101.963 192.064 102.438 192.087 102.907 192.031C103.474 191.93 104.011 191.704 104.479 191.368C105.496 190.657 106.408 189.965 107.084 189.502C107.437 189.231 107.808 188.987 108.196 188.77Z" fill="#FFB194"/>
<path d="M103.191 186.87C103.136 187.626 102.891 188.357 102.479 188.993C102.128 189.666 101.618 190.243 100.993 190.673C101.463 190.104 101.898 189.508 102.296 188.887C102.634 188.233 102.934 187.56 103.191 186.87Z" fill="#FFB194"/>
<path d="M99.7428 190.823C99.5541 190.999 99.3046 191.095 99.0466 191.092C98.7394 191.106 98.4324 191.058 98.1446 190.949C97.8568 190.841 97.5943 190.675 97.3733 190.461C96.948 190.034 96.6165 189.523 96.4002 188.96C96.2889 188.739 96.2133 188.502 96.1763 188.257C96.3241 188.453 96.4459 188.668 96.5386 188.895C96.7815 189.418 97.112 189.895 97.5158 190.307C97.9295 190.699 98.4726 190.926 99.0426 190.945C99.2796 190.929 99.5143 190.888 99.7428 190.823Z" fill="#FFB194"/>
<path d="M95.5699 194.732C95.4653 194.784 95.3523 194.817 95.2361 194.829C94.927 194.883 94.6128 194.901 94.2996 194.882C93.2587 194.807 92.2528 194.474 91.3723 193.914C90.5054 193.355 89.712 192.69 89.0108 191.933C88.7008 191.641 88.42 191.32 88.1721 190.974C88.508 191.234 88.8237 191.52 89.1167 191.828C89.8387 192.54 90.6313 193.178 91.4822 193.731C92.3432 194.278 93.3182 194.62 94.3322 194.732C94.7445 194.754 95.1576 194.754 95.5699 194.732Z" fill="#FFB194"/>
<path d="M161.067 149.647L174.271 155.394L183.191 158.672C183.191 158.672 190.17 160.828 191.982 163.248C196.09 168.738 201.753 175.738 198.541 180.33C195.328 184.921 191.982 185.027 188.02 184.161C184.059 183.294 177.715 180.549 174.865 177.58C172.015 174.611 151.174 159.03 151.174 159.03L161.067 149.647Z" fill="#FFD5BE"/>
<path d="M153.266 155.468L154.711 161.39C154.86 161.997 154.776 162.639 154.474 163.187C154.173 163.735 153.676 164.151 153.083 164.351L125.943 173.424C125.687 173.513 125.408 173.513 125.152 173.426C124.896 173.34 124.675 173.17 124.526 172.944L123.956 172.131L122.079 172.647C121.387 172.399 120.809 171.374 120.418 170.341L115.247 171.639L114.913 170.85L119.864 168.772C119.864 168.772 119.282 166.193 119.697 165.542L121.497 164.904C121.497 164.904 121.452 163.505 121.879 163.025L128.837 160.511L149.089 153.219C149.51 153.068 149.958 153.007 150.405 153.04C150.851 153.073 151.286 153.2 151.68 153.413C152.074 153.625 152.419 153.917 152.692 154.272C152.965 154.626 153.161 155.033 153.266 155.468Z" fill="#E79468"/>
<path d="M123.952 172.11L123.907 172.045L123.793 171.85C123.692 171.683 123.553 171.443 123.386 171.122C122.539 169.493 121.944 167.744 121.623 165.937C121.562 165.591 121.522 165.306 121.501 165.123L121.477 164.9C121.477 164.847 121.477 164.822 121.477 164.822C121.477 164.822 121.477 164.847 121.497 164.9C121.518 164.952 121.526 165.042 121.538 165.119C121.57 165.314 121.619 165.595 121.689 165.933C121.864 166.828 122.099 167.712 122.393 168.576C122.69 169.439 123.041 170.283 123.443 171.102C123.598 171.415 123.724 171.671 123.818 171.842L123.92 172.045C123.944 172.07 123.956 172.106 123.952 172.11Z" fill="#263238"/>
<g opacity="0.3">
<path d="M121.566 164.75L121.517 164.685C121.698 167.321 122.537 169.871 123.96 172.099C123.157 169.659 122.359 167.209 121.566 164.75Z" fill="black"/>
</g>
<path d="M121.672 165.969C121.672 165.998 121.184 165.969 120.601 166.124C120.253 166.222 119.911 166.338 119.575 166.474C119.657 166.404 119.749 166.346 119.848 166.303C120.082 166.189 120.328 166.1 120.581 166.039C120.833 165.979 121.091 165.948 121.351 165.945C121.458 165.936 121.567 165.944 121.672 165.969Z" fill="#263238"/>
<path d="M121.839 167.133C121.839 167.161 121.35 167.133 120.768 167.288C120.42 167.385 120.077 167.502 119.742 167.638C119.825 167.567 119.918 167.509 120.019 167.467C120.251 167.352 120.496 167.263 120.748 167.202C121.001 167.142 121.261 167.111 121.521 167.108C121.628 167.099 121.735 167.107 121.839 167.133Z" fill="#263238"/>
<path d="M122.148 168.214C121.767 168.251 121.389 168.315 121.017 168.406C120.402 168.569 119.946 168.813 119.934 168.792C120.019 168.717 120.117 168.656 120.223 168.613C120.471 168.491 120.73 168.393 120.996 168.32C121.368 168.2 121.761 168.164 122.148 168.214Z" fill="#263238"/>
<path d="M122.486 169.223C122.375 169.244 122.262 169.258 122.148 169.263C121.873 169.301 121.6 169.361 121.334 169.443C120.723 169.634 120.263 169.886 120.251 169.85C120.337 169.773 120.434 169.712 120.54 169.666C120.787 169.538 121.044 169.432 121.31 169.349C121.686 169.214 122.09 169.17 122.486 169.223Z" fill="#263238"/>
<path d="M122.922 170.276C122.832 170.355 122.73 170.419 122.621 170.468C122.361 170.593 122.088 170.69 121.807 170.757C121.525 170.823 121.237 170.854 120.947 170.85C120.828 170.858 120.708 170.844 120.593 170.81C120.994 170.797 121.393 170.752 121.786 170.675C122.174 170.571 122.554 170.438 122.922 170.276Z" fill="#263238"/>
<path d="M123.382 171.212C123.315 171.304 123.232 171.384 123.137 171.448C122.917 171.621 122.671 171.758 122.408 171.855C122.147 171.95 121.872 172.007 121.594 172.022C121.48 172.036 121.364 172.028 121.252 171.998C121.637 171.97 122.017 171.895 122.384 171.774C122.737 171.625 123.072 171.437 123.382 171.212Z" fill="#263238"/>
<g opacity="0.3">
<path d="M119.864 168.779C119.778 168.894 119.723 169.029 119.703 169.171C119.683 169.314 119.699 169.458 119.75 169.593C119.8 169.756 119.886 169.906 120.001 170.033C120.115 170.159 120.256 170.259 120.414 170.325C120.188 169.826 120.004 169.309 119.864 168.779Z" fill="black"/>
</g>
<g opacity="0.3">
<path d="M150.001 162.716C149.667 161.967 149.187 161.219 149.264 160.402C149.358 159.299 150.441 158.368 150.217 157.274C150.149 157.016 150.026 156.775 149.856 156.569C149.686 156.364 149.473 156.197 149.231 156.082C148.748 155.861 148.23 155.724 147.701 155.676C141.129 154.748 135.332 157.681 128.838 160.556C128.878 162.106 128.683 163.81 128.724 165.347C128.712 166.092 128.799 166.834 128.984 167.556C129.079 167.917 129.246 168.255 129.475 168.551C129.703 168.847 129.989 169.093 130.316 169.276C131.411 169.817 132.738 169.276 133.731 168.584C134.022 168.937 134.386 169.222 134.798 169.42C135.21 169.618 135.66 169.724 136.117 169.731C137.033 169.741 137.941 169.561 138.784 169.203C139.119 169.108 139.408 168.896 139.598 168.605C139.669 168.388 139.683 168.157 139.639 167.933C139.595 167.71 139.494 167.501 139.346 167.328C139.043 166.987 138.832 166.576 138.731 166.132C139.138 167.214 140.38 167.82 141.545 167.84C142.709 167.861 143.825 167.409 144.879 166.913C145.934 166.417 146.98 165.868 148.136 165.66C148.767 165.546 149.48 165.514 149.924 165.054C150.498 164.428 150.335 163.452 150.001 162.716Z" fill="black"/>
</g>
<path d="M136.398 151.198L130.259 156.892L128.455 161.272C128.455 161.272 128.74 166.897 129.725 167.311C130.711 167.726 130.947 167.779 131.325 167.116C131.704 166.453 132.172 162.256 132.172 162.256L133.516 167.543L138.996 170.622C138.996 170.622 139.981 169.402 138.459 167.413C137.854 166.678 137.294 165.908 136.781 165.107L135.857 161.386L138.483 157.119L137.473 160.82C137.409 161.127 137.407 161.443 137.47 161.751C137.532 162.058 137.657 162.349 137.836 162.606L141.972 168.54L146.915 169.54C146.915 169.54 147.216 168.576 146.329 167.336L149.024 167.946C149.024 167.946 151.467 166.319 149.602 164.887L147.729 163.448L146.772 160.454L147.322 156.615C147.322 156.615 147.078 157.225 148.898 156.717C148.898 156.717 153.083 158.726 155.265 159.128C157.448 159.531 160.257 156.375 160.257 156.375L161.071 149.656L138.389 149.982L136.398 151.198Z" fill="#FFD5BE"/>
<path d="M144.297 154.923C144.235 155.087 144.157 155.245 144.065 155.395C143.902 155.704 143.658 156.147 143.385 156.708C143.069 157.362 142.833 158.052 142.681 158.762C142.51 159.633 142.538 160.531 142.762 161.39C143.234 163.228 144.334 164.643 145.111 165.587C145.518 166.067 145.844 166.449 146.072 166.713C146.2 166.844 146.314 166.989 146.41 167.144C146.264 167.031 146.128 166.906 146.003 166.77C145.759 166.522 145.404 166.156 144.989 165.684C144.504 165.134 144.059 164.549 143.658 163.936C143.161 163.171 142.789 162.332 142.559 161.451C142.323 160.564 142.3 159.635 142.489 158.738C142.65 158.013 142.906 157.313 143.251 156.655C143.536 156.094 143.808 155.663 143.996 155.366C144.079 155.208 144.18 155.059 144.297 154.923Z" fill="#FFB194"/>
<path d="M161.979 154.487C161.981 154.614 161.964 154.741 161.926 154.862C161.897 155.006 161.861 155.148 161.816 155.289C161.763 155.477 161.699 155.661 161.625 155.842C161.441 156.318 161.211 156.774 160.936 157.204C160.6 157.731 160.21 158.222 159.772 158.668C159.326 159.108 158.836 159.5 158.31 159.84C157.88 160.114 157.425 160.347 156.951 160.535C156.751 160.621 156.543 160.673 156.397 160.726C156.257 160.773 156.114 160.81 155.969 160.836C155.849 160.876 155.722 160.896 155.595 160.893C155.595 160.852 156.112 160.739 156.894 160.397C157.349 160.192 157.787 159.951 158.205 159.677C158.712 159.336 159.187 158.948 159.621 158.518C160.049 158.081 160.434 157.606 160.774 157.098C161.048 156.682 161.287 156.242 161.486 155.785C161.816 154.988 161.926 154.479 161.979 154.487Z" fill="#FFB194"/>
<path d="M135.295 154.122C135.32 154.155 134.888 154.443 134.33 155.053C134.006 155.41 133.713 155.793 133.455 156.2C133.141 156.702 132.868 157.228 132.641 157.774C132.431 158.325 132.267 158.892 132.152 159.47C132.069 159.946 132.03 160.428 132.034 160.91C132.034 161.723 132.201 162.232 132.16 162.24C132.101 162.134 132.06 162.018 132.038 161.898C131.996 161.766 131.966 161.63 131.949 161.492C131.914 161.305 131.893 161.116 131.883 160.926C131.858 160.433 131.884 159.938 131.961 159.45C132.064 158.855 132.226 158.272 132.445 157.709C132.671 157.149 132.95 156.612 133.28 156.107C133.55 155.693 133.863 155.309 134.212 154.96C134.34 154.824 134.476 154.696 134.619 154.578C134.726 154.481 134.84 154.394 134.961 154.317C135.061 154.234 135.174 154.168 135.295 154.122Z" fill="#FFB194"/>
<path d="M202.502 209.661C202.499 210.943 202.245 212.212 201.752 213.396C201.259 214.579 200.537 215.654 199.628 216.559C197.793 218.386 195.305 219.41 192.714 219.406C190.122 219.402 187.639 218.369 185.809 216.536C183.98 214.702 182.954 212.218 182.959 209.629L202.502 209.661Z" fill="#455A64"/>
<path d="M198.214 214.672C198.157 214.672 198.385 213.603 198.573 212.289C198.76 210.975 198.841 209.893 198.902 209.897C198.971 210.706 198.93 211.52 198.78 212.317C198.7 213.125 198.51 213.917 198.214 214.672Z" fill="#E0E0E0"/>
<path d="M195.515 214.872C195.511 214.048 195.554 213.225 195.645 212.407C195.668 211.583 195.741 210.761 195.865 209.946C195.956 210.768 195.956 211.597 195.865 212.419C195.838 213.247 195.72 214.069 195.515 214.872Z" fill="#E0E0E0"/>
<path d="M192.062 210.243C192.204 211.584 192.204 212.937 192.062 214.278C191.921 212.937 191.921 211.584 192.062 210.243Z" fill="#E0E0E0"/>
<path d="M189.16 210.341C189.221 210.341 189.204 211.227 189.274 212.309C189.347 212.963 189.388 213.62 189.396 214.278C189.181 213.648 189.068 212.987 189.062 212.321C188.986 211.66 189.019 210.991 189.16 210.341Z" fill="#E0E0E0"/>
<path d="M186.408 214.074C186.149 213.449 185.995 212.785 185.952 212.11C185.837 211.437 185.837 210.749 185.952 210.076C186.013 210.076 186.037 210.975 186.163 212.069C186.29 213.163 186.485 214.058 186.408 214.074Z" fill="#E0E0E0"/>
<path d="M158.876 201.715C158.976 206.341 160.885 210.745 164.196 213.982C167.507 217.219 171.955 219.031 176.587 219.031C181.22 219.031 185.668 217.219 188.978 213.982C192.289 210.745 194.199 206.341 194.298 201.715H158.876Z" fill="#E79468"/>
<path d="M193.121 208.043C192.902 208.209 192.667 208.355 192.42 208.478C191.712 208.836 190.94 209.051 190.149 209.112C188.886 209.218 187.623 208.915 186.545 208.25C186.199 208.052 185.897 207.786 185.657 207.468C185.417 207.15 185.244 206.786 185.149 206.399C185.072 205.964 185.135 205.516 185.328 205.118C185.429 204.905 185.577 204.718 185.762 204.572C185.947 204.426 186.164 204.325 186.395 204.276C186.637 204.235 186.886 204.244 187.124 204.303C187.363 204.362 187.588 204.469 187.783 204.618C188.185 204.937 188.463 205.386 188.569 205.887C188.675 206.412 188.653 206.954 188.504 207.468C188.355 207.982 188.084 208.453 187.714 208.84C186.941 209.69 185.875 210.216 184.729 210.312C183.527 210.388 182.326 210.144 181.248 209.604C180.687 209.341 180.153 209.023 179.652 208.657C179.105 208.295 178.694 207.761 178.484 207.14C178.392 206.814 178.392 206.469 178.484 206.143C178.571 205.803 178.789 205.511 179.091 205.33C179.245 205.242 179.416 205.188 179.593 205.172C179.77 205.156 179.949 205.178 180.117 205.236C180.449 205.349 180.742 205.555 180.959 205.83C181.179 206.109 181.307 206.448 181.326 206.802C181.346 207.151 181.294 207.5 181.171 207.827C180.917 208.475 180.507 209.05 179.978 209.503C178.912 210.444 177.537 210.959 176.114 210.951C175.403 210.953 174.699 210.815 174.042 210.544C173.38 210.291 172.795 209.87 172.344 209.324C172.125 209.044 171.966 208.723 171.876 208.38C171.793 208.035 171.793 207.676 171.876 207.331C171.959 206.984 172.143 206.67 172.405 206.428C172.67 206.182 173.013 206.038 173.374 206.021C173.72 206.02 174.061 206.106 174.365 206.27C174.67 206.434 174.928 206.671 175.117 206.961C175.288 207.251 175.391 207.577 175.419 207.913C175.446 208.249 175.397 208.586 175.276 208.901C175.056 209.516 174.647 210.045 174.107 210.414C173.585 210.766 172.994 211.003 172.373 211.109C171.226 211.313 170.05 211.278 168.918 211.007C167.786 210.735 166.722 210.233 165.793 209.531C164.946 208.868 164.234 207.965 164.112 206.924C164.082 206.669 164.097 206.41 164.157 206.16C164.223 205.915 164.336 205.686 164.49 205.484C164.788 205.085 165.223 204.808 165.712 204.708C165.944 204.66 166.185 204.675 166.41 204.752C166.635 204.828 166.835 204.963 166.99 205.143C167.274 205.484 167.419 205.92 167.397 206.363C167.369 206.778 167.228 207.177 166.99 207.518C166.776 207.83 166.512 208.104 166.209 208.331C165.669 208.757 165.037 209.052 164.364 209.194C163.802 209.313 163.224 209.335 162.654 209.259C161.863 209.16 161.11 208.861 160.468 208.388L160.191 208.165C160.114 208.095 160.057 208.03 160.008 207.982C159.959 207.933 159.865 207.827 159.865 207.827C159.865 207.827 159.922 207.872 160.024 207.965L160.211 208.14L160.492 208.356C161.137 208.803 161.882 209.083 162.662 209.169C163.223 209.238 163.792 209.21 164.344 209.088C164.999 208.943 165.612 208.65 166.135 208.23C166.445 208.009 166.705 207.726 166.898 207.399C167.092 207.072 167.215 206.708 167.259 206.33C167.279 205.92 167.145 205.517 166.884 205.2C166.743 205.042 166.562 204.924 166.361 204.857C166.16 204.789 165.944 204.776 165.736 204.817C165.286 204.918 164.89 205.181 164.623 205.557C164.356 205.932 164.237 206.393 164.291 206.851C164.488 207.86 165.072 208.752 165.919 209.336C166.829 210.018 167.87 210.505 168.977 210.767C170.084 211.03 171.233 211.062 172.352 210.861C172.945 210.756 173.51 210.529 174.009 210.194C174.514 209.848 174.896 209.351 175.101 208.775C175.211 208.49 175.256 208.185 175.232 207.88C175.208 207.576 175.116 207.281 174.962 207.018C174.793 206.758 174.561 206.544 174.288 206.397C174.015 206.249 173.709 206.172 173.399 206.172C173.088 206.181 172.79 206.301 172.56 206.509C172.327 206.728 172.166 207.011 172.096 207.323C172.019 207.636 172.016 207.963 172.086 208.277C172.157 208.592 172.3 208.886 172.503 209.137C172.936 209.657 173.497 210.055 174.132 210.292C174.763 210.552 175.44 210.684 176.122 210.678C177.493 210.685 178.818 210.19 179.848 209.287C180.349 208.855 180.738 208.308 180.98 207.693C181.108 207.404 181.16 207.087 181.129 206.773C181.098 206.459 180.987 206.158 180.805 205.899C180.634 205.646 180.38 205.461 180.086 205.378C179.792 205.295 179.479 205.318 179.2 205.444C178.956 205.619 178.774 205.866 178.68 206.151C178.585 206.436 178.584 206.744 178.675 207.03C178.875 207.605 179.259 208.1 179.766 208.437C180.256 208.796 180.778 209.107 181.326 209.368C182.373 209.894 183.54 210.134 184.709 210.064C185.809 209.976 186.835 209.474 187.579 208.661C187.931 208.294 188.188 207.849 188.33 207.361C188.472 206.874 188.494 206.36 188.394 205.863C188.298 205.397 188.041 204.98 187.669 204.683C187.492 204.546 187.289 204.446 187.072 204.391C186.854 204.336 186.628 204.326 186.407 204.362C186.198 204.405 186.002 204.496 185.834 204.628C185.667 204.76 185.533 204.929 185.442 205.122C185.256 205.49 185.195 205.908 185.267 206.314C185.357 206.684 185.521 207.031 185.748 207.337C185.976 207.642 186.262 207.898 186.59 208.091C187.646 208.748 188.883 209.056 190.124 208.97C190.908 208.917 191.674 208.717 192.384 208.38C192.624 208.258 192.791 208.161 192.921 208.087C193.051 208.014 193.121 208.043 193.121 208.043Z" fill="white"/>
<path d="M207.958 219.407C207.958 219.464 168.229 219.512 119.233 219.512C70.2374 219.512 30.5002 219.464 30.5002 219.407C30.5002 219.35 70.2211 219.301 119.233 219.301C168.245 219.301 207.958 219.35 207.958 219.407Z" fill="#263238"/>
<path d="M133.762 76.021C133.207 74.8115 133.814 73.3459 134.849 72.4495C135.885 71.553 137.262 71.1119 138.601 70.7182C139.94 70.3245 141.321 69.9309 142.423 69.1103C144.612 67.4881 145.196 64.5569 144.887 61.9529C144.308 56.9726 141.051 52.4666 136.73 49.5638C132.409 46.661 127.115 45.2049 121.82 44.7685C110.8 43.8531 100.876 47.6618 92.4337 54.4066C91.7495 54.9538 91.188 55.6386 90.7855 56.4164C90.3831 57.1943 90.1487 58.0479 90.0976 58.922C90.0359 60.2786 90.8336 61.5213 91.6598 62.6312C94.2001 66.051 97.1772 68.4178 100.681 70.9743L99.7032 76.5665L133.762 76.021Z" fill="#197A8A"/>
<path d="M141.768 59.5575C141.678 59.7143 141.562 59.8553 141.426 59.9749C141.08 60.318 140.708 60.6351 140.315 60.9235C139.817 61.2982 139.195 61.7014 138.497 62.1283C137.799 62.5551 137.025 63.001 136.251 63.5512C135.518 64.0345 134.847 64.6047 134.252 65.2492C133.772 65.7769 133.383 66.3793 133.098 67.0327C132.854 67.6388 132.705 68.2786 132.656 68.9299C132.616 68.7543 132.604 68.5732 132.623 68.3939C132.648 67.8979 132.754 67.4092 132.936 66.9473C133.208 66.2637 133.595 65.6316 134.081 65.0785C134.678 64.4106 135.36 63.8223 136.108 63.3283C136.896 62.7923 137.68 62.3464 138.378 61.9338C139.076 61.5211 139.707 61.1322 140.211 60.7812C141.222 60.0745 141.74 59.51 141.768 59.5575Z" fill="#263238"/>
<path d="M136.407 53.9609C136.436 54.0036 135.634 54.4685 134.508 55.4455C134.233 55.6922 133.929 55.9625 133.625 56.2803C133.321 56.5981 133.013 56.9444 132.675 57.3143C132 58.1366 131.399 59.0176 130.881 59.9468C130.381 60.8862 129.963 61.867 129.632 62.878C129.494 63.3524 129.352 63.7935 129.266 64.2204C129.17 64.6147 129.094 65.0136 129.038 65.4156C128.815 66.886 128.853 67.8157 128.801 67.8157C128.763 67.6013 128.748 67.3834 128.758 67.1658C128.742 66.9115 128.742 66.6565 128.758 66.4022C128.768 66.0641 128.797 65.7269 128.844 65.3919C128.891 64.9839 128.959 64.5787 129.048 64.1777C129.141 63.7165 129.258 63.2606 129.399 62.8116C129.724 61.7814 130.145 60.7841 130.657 59.8329C131.193 58.8952 131.814 58.0092 132.514 57.1863C132.846 56.8163 133.155 56.4558 133.464 56.157C133.753 55.866 134.057 55.5905 134.375 55.3317C134.66 55.0803 134.945 54.8953 135.182 54.7151C135.385 54.5612 135.598 54.4202 135.819 54.293C136.002 54.1601 136.199 54.0487 136.407 53.9609Z" fill="#263238"/>
<path d="M124.057 51.418C124.066 51.6194 124.055 51.8212 124.024 52.0203C123.986 52.4093 123.939 52.969 123.886 53.6615C123.603 57.2689 123.729 60.8967 124.261 64.4758C124.361 65.1636 124.447 65.7185 124.513 66.1027C124.559 66.2986 124.583 66.4991 124.584 66.7004C124.509 66.5137 124.454 66.3198 124.418 66.1217C124.323 65.7422 124.209 65.1731 124.086 64.5043C123.458 60.9185 123.332 57.263 123.711 53.6425C123.787 52.95 123.863 52.3903 123.929 52.0109C123.949 51.809 123.992 51.61 124.057 51.418Z" fill="#263238"/>
<path d="M115.995 48.9805C116.015 49.233 116.015 49.4868 115.995 49.7394C115.995 50.2137 115.995 50.9394 115.995 51.8121C116.025 54.0864 116.184 56.3573 116.47 58.6138C116.767 60.8703 117.194 63.108 117.747 65.3158C117.961 66.1649 118.141 66.8479 118.274 67.3174C118.355 67.5586 118.415 67.8061 118.454 68.0574C118.344 67.8285 118.253 67.5904 118.184 67.3459C118.022 66.8716 117.813 66.2028 117.581 65.3585C116.981 63.1553 116.536 60.9126 116.251 58.647C115.957 56.3808 115.819 54.0972 115.838 51.8121C115.838 50.9346 115.876 50.2279 115.914 49.7394C115.92 49.4846 115.947 49.2308 115.995 48.9805Z" fill="#263238"/>
<path d="M100.772 54.5537C100.958 54.7055 101.128 54.8755 101.28 55.0612C101.593 55.4027 102.035 55.9055 102.572 56.5363C103.635 57.8028 105.05 59.6052 106.47 61.6969C107.685 63.479 108.809 65.3217 109.836 67.2179C110.23 67.9436 110.534 68.5412 110.734 68.9586C110.851 69.1685 110.948 69.3893 111.023 69.6179C110.882 69.4226 110.757 69.2164 110.648 69.0013C110.401 68.5602 110.074 67.991 109.699 67.3033C108.877 65.8803 107.695 63.9167 106.28 61.8344C104.865 59.7522 103.478 57.9403 102.448 56.6502L101.218 55.1276C101.053 54.9497 100.904 54.7576 100.772 54.5537Z" fill="#263238"/>
<path d="M99.9599 87.0679C98.1509 80.9019 99.1005 76.5809 100.292 72.165C100.292 72.165 114.95 63.4281 127.029 66.1886C127.029 66.1886 134.574 67.7017 135.548 71.6148L135.761 84.9383C135.761 84.9383 134.935 79.6639 123.948 79.2465C112.961 78.8291 99.9599 87.0679 99.9599 87.0679Z" fill="#197A8A"/>
<path d="M135.244 71.6531C135.17 71.5466 135.105 71.4339 135.049 71.3164C134.983 71.2073 134.921 71.065 134.821 70.9085L134.465 70.382C133.646 69.3022 132.591 68.4243 131.379 67.8159C129.579 66.918 127.637 66.3402 125.638 66.1084C123.196 65.7783 120.721 65.7783 118.279 66.1084C117.014 66.2787 115.762 66.5258 114.528 66.8483C113.331 67.1566 112.201 67.5408 111.118 67.9013C108.963 68.627 107.044 69.3574 105.449 70.0025C103.854 70.6476 102.567 71.1978 101.684 71.5772L100.663 72.0136C100.547 72.0712 100.427 72.1173 100.302 72.1512C100.411 72.0817 100.525 72.0214 100.644 71.9709C100.891 71.8476 101.223 71.6911 101.646 71.4966C102.519 71.0887 103.787 70.51 105.383 69.846C106.978 69.182 108.887 68.4231 111.047 67.6879C112.125 67.3274 113.26 66.9337 114.466 66.6207C115.715 66.2903 116.984 66.0384 118.264 65.8665C120.728 65.5289 123.227 65.5289 125.691 65.8665C127.7 66.1205 129.648 66.7275 131.446 67.6594C132.67 68.2923 133.728 69.2058 134.532 70.325L134.869 70.8705C134.964 71.0318 135.021 71.1836 135.078 71.2927C135.141 71.4093 135.196 71.5297 135.244 71.6531Z" fill="#263238"/>
</svg>
